<svg width="16" height="13" viewBox="0 0 16 13" fill="none" xmlns="http://www.w3.org/2000/svg">
    <path d="M15.7812 6.35156C15.7812 6.10938 15.6797 5.875 15.5 5.70312L10.3672 0.570312C10.1641 0.375 9.95312 0.289062 9.73438 0.289062C9.23438 0.289062 8.875 0.640625 8.875 1.11719C8.875 1.36719 8.97656 1.57812 9.13281 1.73438L10.8906 3.51562L13.1562 5.58594L11.3438 5.47656H1.875C1.35156 5.47656 0.992188 5.83594 0.992188 6.35156C0.992188 6.85938 1.35156 7.21875 1.875 7.21875H11.3438L13.1562 7.10938L10.8906 9.17969L9.13281 10.9609C8.97656 11.1172 8.875 11.3281 8.875 11.5781C8.875 12.0547 9.23438 12.4062 9.73438 12.4062C9.95312 12.4062 10.1641 12.3203 10.3516 12.1406L15.5 6.99219C15.6797 6.82031 15.7812 6.58594 15.7812 6.35156Z"
          fill="currentColor"/>
</svg>
