<svg xmlns="http://www.w3.org/2000/svg" fill="none" viewBox="0 0 63 64">
  <path fill="#fff" stroke="#28365B" stroke-width=".3" d="M6.90926 50.8872l.03481-.0827-.05637-.0698c-1.9384-2.3999-3.50718-5.0762-4.61438-7.9364C.888397 39.1975.15 35.4128.15 31.4435.15 14.1814 14.1814.15 31.4435.15 48.7056.15 62.737 14.1814 62.737 31.4435c0 17.2621-14.0314 31.2935-31.2935 31.2935-3.509 0-7.0162-.5541-10.3375-1.7534l-.0373-.0135-.0391.0067L4.34692 63.85H4.08116c-.50754 0-1.02218-.2548-1.36693-.6857l-.00519-.0065-.00587-.0059c-.41244-.4124-.50532-1.0859-.24645-1.6899l.00037-.0009 4.45217-10.5739zm13.98604 6.5823l.0111-.0019.0106-.0036c.1079-.0359.2439-.0386.3951-.017.1485.0213.3.0641.4345.1088 3.1707 1.2118 6.4342 1.771 9.6969 1.771 15.3872 0 27.9761-12.5889 27.9761-27.9761 0-15.3872-12.4962-27.88331-27.8834-27.88331-15.3872 0-27.8833 12.49611-27.8833 27.88331 0 3.5408.55914 6.8989 1.8655 10.1651 1.11938 2.8915 2.70487 5.5024 4.755 7.9254.4263.5118.5121 1.1934.2554 1.7925l-3.6174 8.4405-.10904.2545.2727-.0476 13.82024-2.4116z" opacity=".5"/>
  <path stroke="#fff" stroke-linecap="round" stroke-width="3" d="M15.5 32.5002c2.1667-3.6666 9-10.4998 16 0 6.4499 9.6747 13.8333 3.6667 16 0"/>
</svg>
