<svg xmlns="http://www.w3.org/2000/svg" fill="none" viewBox="0 0 64 64">
  <g opacity=".5">
    <rect width="61" height="61" x="1.5" y="1.5" stroke="#fff" stroke-width="3" rx="8.5"/>
    <circle cx="9.5" cy="9.5" r="2.5" fill="#fff"/>
    <circle cx="16.5" cy="9.5" r="2.5" fill="#fff"/>
    <circle cx="23.5" cy="9.5" r="2.5" fill="#fff"/>
  </g>
  <path stroke="#fff" stroke-width="3" d="M43.5 41c0-1.933 1.567-3.5 3.5-3.5s3.5 1.567 3.5 3.5v6c0 1.933-1.567 3.5-3.5 3.5s-3.5-1.567-3.5-3.5v-6zM28.5 25c0-1.933 1.567-3.5 3.5-3.5s3.5 1.567 3.5 3.5v22c0 1.933-1.567 3.5-3.5 3.5s-3.5-1.567-3.5-3.5V25zM13.5 35c0-1.933 1.567-3.5 3.5-3.5s3.5 1.567 3.5 3.5v12c0 1.933-1.567 3.5-3.5 3.5s-3.5-1.567-3.5-3.5V35z"/>
</svg>
