<svg xmlns="http://www.w3.org/2000/svg" fill="none" viewBox="0 0 67 67">
  <g opacity=".5">
    <circle cx="49" cy="18" r="16.5" fill="#2F3D64" stroke="#fff" stroke-width="3"/>
    <path fill="#fff" fill-rule="evenodd" d="M51.6139 14.5036c.0629.0184.1307.0276.1986.0276.125 0 .2187-.0312.3125-.1562l.7187-.7188c.0938-.0937.125-.2187.125-.375 0-.125-.0625-.25-.1875-.375-.0659-.0481-.1322-.0944-.199-.1389-.0093-.0062-.0186-.0123-.0279-.0185-.2409-.1582-.4877-.2921-.7418-.401-.1434-.0615-.2892-.115-.4376-.1604-.1231-.0376-.248-.0697-.3749-.0961-.1709-.0355-.3453-.0608-.5238-.0756-.0428-.0036-.0859-.0065-.1292-.0089-.0087-.0005-.0174-.0009-.0261-.0013-.0221-.0011-.0441-.002-.0663-.0028-.0533-.0018-.1069-.0027-.1609-.0027H50v-1.5c0-.125-.0625-.25-.1563-.3438C49.75 10.0625 49.625 10 49.5 10h-1c-.1563 0-.2813.0625-.375.1562-.0938.0938-.125.2188-.125.3438V12h-.0625c-.0526 0-.1047.001-.1563.0031-.0943.0038-.1869.0111-.2779.0217-.1733.0201-.3408.0524-.5033.0961-.4264.1147-.8179.3078-1.1875.5666-.2146.1609-.4034.3366-.5664.5282-.3118.3666-.5293.7918-.6524 1.2843-.083.3319-.1165.6548-.1022.9688.0051.1126.0163.224.0336.3343.0617.3928.2003.7709.4124 1.1344.1316.2256.283.4287.4534.6091.3959.4191.8942.7161 1.4841.8909l3.625 1.0313c.0115.0043.023.0087.0344.0131.0134.0053.0267.0106.04.0161.2192.0902.4131.2083.5818.377.0675.0675.1229.1391.1676.2148.0793.1343.1249.2815.1449.4414.0278.1669.0247.3276-.0094.4821-.0038.0172-.0079.0343-.0125.0513-.0465.1739-.1329.3399-.2593.4979-.0406.0507-.0836.0964-.1288.1375-.0161.0146-.0324.0286-.049.0421-.0033.0026-.0065.0052-.0097.0077-.223.1763-.4929.2502-.7813.2502h-2.3164c-.3159-.0004-.6193-.0508-.9023-.167-.1636-.0672-.3204-.1563-.4688-.2705-.022-.011-.043-.021-.0634-.0301-.0205-.0091-.0403-.0172-.0598-.0243-.0717-.0262-.1396-.0393-.2205-.0393-.125 0-.25.0624-.3125.1562l-.7188.6875c-.125.125-.1562.2813-.1562.4063 0 .1562.0937.2812.2187.375.0279.0223.0559.0441.0842.0656.1044.0793.211.1528.3197.2203.1825.1135.3709.2106.5649.2919.1335.056.2696.1046.4082.1459.0304.009.061.0177.0916.0261.1029.0281.2071.0523.3127.0726.1696.0328.3426.0557.5188.0692.0368.0029.0738.0053.1109.0073.0179.0009.0359.0018.054.0026.0171.0007.0342.0013.0514.0019.0567.0019.1138.0028.1711.0028H48v1.5c0 .1562.0312.2812.125.375.0937.0938.2187.125.375.125h1c.125 0 .25-.0312.3437-.125.0938-.0938.1563-.2188.1563-.375V24h.0937c.0418 0 .0835-.0007.125-.002.0778-.0026.1553-.0075.2323-.0149.1859-.0178.3692-.0499.549-.0966.4198-.109.8198-.2983 1.1875-.574.2107-.1475.3965-.3163.5575-.504.3165-.3691.5369-.8113.6612-1.3085.0921-.4145.1088-.8215.0501-1.2172-.004-.0269-.0084-.0538-.013-.0806-.0668-.3814-.2041-.752-.4121-1.1084-.1348-.2311-.2903-.4414-.4647-.629-.3732-.4015-.8329-.6996-1.3613-.8765-.0266-.0089-.0533-.0175-.0802-.0258L47.5 16.5312c-.019-.0042-.0377-.0088-.0561-.0139-.007-.0019-.014-.0039-.021-.0059-.2447-.0721-.4404-.2164-.6104-.3864-.0608-.0608-.1117-.1248-.1528-.1921-.0857-.1405-.1285-.2952-.1285-.4641-.0286-.1716-.0245-.33.0123-.4814.0437-.1795.1333-.3491.269-.5186.0446-.0559.0913-.1067.1401-.1526.0156-.0146.0313-.0287.0474-.0423.0004-.0004.0009-.0008.0014-.0012.2146-.1818.4699-.2727.7798-.2727h2.3125c.3225 0 .619.065.9063.1866.1121.0475.2228.1036.3331.1678.0452.0263.0904.0541.1356.0831.0429.0286.0923.0506.1452.0661z" clip-rule="evenodd"/>
  </g>
  <circle cx="27" cy="40" r="25.5" fill="#2F3D64" stroke="#303D65" stroke-width="3"/>
  <circle cx="27" cy="40" r="22.5" fill="#2F3D64" stroke="#fff" stroke-width="3"/>
  <path fill="#fff" fill-rule="evenodd" d="M31.3202 34.2656c.1641.1094.3829.1641.6016.1641.2188 0 .3828-.0547.5469-.2735l1.2578-1.2578c.1641-.164.2187-.3828.2187-.6562 0-.2188-.1093-.4375-.3281-.6563C32.1952 30.5469 30.664 30 28.914 30h-.1641v-2.625c0-.2188-.1093-.4375-.2734-.6016-.1641-.164-.3828-.2734-.6016-.2734h-1.75c-.2734 0-.4922.1094-.6562.2734-.1641.1641-.2188.3828-.2188.6016V30h-.1093c-1.4219 0-2.625.4375-3.7188 1.2031-1.0937.8203-1.8047 1.8594-2.1328 3.1719-.3828 1.5312-.1641 2.9531.6016 4.2656.7656 1.3125 1.914 2.1875 3.3906 2.625l6.3437 1.8047c.4375.1641.8203.3828 1.1485.7109.3281.3282.4922.711.5468 1.1485.1094.6562-.0546 1.2578-.4921 1.8047-.4375.5468-1.0391.7656-1.6954.7656h-4.0468c-.875 0-1.6953-.2188-2.4063-.7656-.2187-.1094-.3828-.1641-.6015-.1641-.2188 0-.4375.1094-.5469.2735l-1.2578 1.2031c-.2188.2187-.2735.4922-.2735.7109 0 .2734.1641.4922.3828.6563C21.7499 50.5078 23.3359 51 25.0859 51h.164v2.625c0 .2734.0547.4922.2188.6562.164.1641.3828.2188.6562.2188h1.75c.2188 0 .4375-.0547.6016-.2188.1641-.164.2734-.3828.2734-.6562V51h.1641c1.3125 0 2.5703-.3828 3.6641-1.2031 1.0937-.7657 1.8046-1.8594 2.1328-3.1719.3281-1.4766.1093-2.8984-.6563-4.2109-.7656-1.3125-1.914-2.2422-3.3359-2.6797l-6.3438-1.8047c-.4922-.1094-.875-.3828-1.2031-.7109-.3281-.3282-.4922-.711-.4922-1.1485-.1094-.6562.0547-1.2031.4922-1.75.4375-.5469.9844-.8203 1.6953-.8203h4.0469c.875 0 1.6406.2734 2.4062.7656z" clip-rule="evenodd"/>
</svg>
