<svg width="58" height="58" viewBox="0 0 58 58" fill="none" xmlns="http://www.w3.org/2000/svg">
    <path d="M8.18747 14.7809L5.19323 12.7824C14.0001 -0.182669 31.6943 -3.66109 44.761 5.05106L44.761 5.05107C54.9702 11.8559 59.6565 24.3958 56.5898 36.1111C56.343 37.0542 55.3283 37.5634 54.3827 37.243C53.4458 36.9257 52.9354 35.9009 53.1809 34.9157C55.7122 24.7553 51.6064 13.9426 42.7654 8.04607L42.6267 8.25405L42.7654 8.04605C31.3499 0.433741 15.8945 3.46424 8.18747 14.7809Z" fill="#C5C5CF" stroke="#F5F5F7" stroke-width="0.5"/>
    <path d="M26.6211 40.1914C27.4414 40.1914 28.0859 39.875 28.5312 39.2188L39.4414 22.5898C39.7578 22.1094 39.8867 21.6523 39.8867 21.2305C39.8867 20.0938 39.0195 19.25 37.8477 19.25C37.0508 19.25 36.5469 19.543 36.0547 20.3047L26.5742 35.2578L21.7695 29.3633C21.3242 28.8242 20.832 28.5898 20.1523 28.5898C18.9688 28.5898 18.1133 29.4336 18.1133 30.582C18.1133 31.0977 18.2656 31.543 18.7109 32.0469L24.7578 39.3125C25.2617 39.9102 25.8477 40.1914 26.6211 40.1914Z" fill="#2C5EF6"/>
    <path d="M11.2099 46.6048C12.3515 47.7474 13.6133 48.786 14.9912 49.7032C20.5534 53.413 27.2299 54.7333 33.7858 53.4233C40.2601 52.1296 45.8558 48.42 49.5671 42.9682L52.5622 44.9658C48.3175 51.2163 41.911 55.4684 34.4927 56.953C26.9917 58.452 19.3573 56.9413 12.9925 52.6981L12.9924 52.6981C11.4203 51.6503 9.97507 50.4599 8.67262 49.1564L8.67256 49.1564C1.68368 42.1675 -1.31022 31.8779 1.04037 22.142C1.26922 21.1941 2.27493 20.667 3.2269 20.971C4.16883 21.2718 4.6972 22.2871 4.47072 23.2767C2.54238 31.7028 5.17051 40.5645 11.2099 46.6048ZM11.2099 46.6048L11.3868 46.4281M11.2099 46.6048L11.3868 46.4281M11.3868 46.4281C12.5168 47.5591 13.7658 48.5871 15.1298 49.4951M11.3868 46.4281C5.40738 40.4478 2.80553 31.6736 4.71442 23.3325C4.96689 22.2293 4.38102 21.0771 3.30295 20.7328C2.22435 20.3884 1.06308 20.9827 0.797353 22.0833C-1.57397 31.9051 1.4462 42.2836 8.49578 49.3331L15.1298 49.4951M15.1298 49.4951C20.6368 53.1681 27.2458 54.4751 33.7368 53.1781C40.2237 51.882 45.8187 48.1369 49.4918 42.6325L15.1298 49.4951Z" fill="#C5C5CF" stroke="#F5F5F7" stroke-width="0.5"/>
    <path d="M51.3994 56.9171C50.5706 56.9176 49.8984 56.2459 49.8984 55.4171V48.1011C49.8984 46.9965 49.003 46.1011 47.8984 46.1011H40.3984C39.57 46.1011 38.8984 45.4295 38.8984 44.6011C38.8984 43.7726 39.57 43.1011 40.3984 43.1011H50.8984C52.003 43.1011 52.8984 43.9965 52.8984 45.1011V55.4171C52.8984 56.2451 52.2275 56.9165 51.3994 56.9171Z" fill="#C5C5CF"/>
    <path d="M51.3994 56.9171C50.5706 56.9176 49.8984 56.2459 49.8984 55.4171V48.1011C49.8984 46.9965 49.003 46.1011 47.8984 46.1011H40.3984C39.57 46.1011 38.8984 45.4295 38.8984 44.6011C38.8984 43.7726 39.57 43.1011 40.3984 43.1011H50.8984C52.003 43.1011 52.8984 43.9965 52.8984 45.1011V55.4171C52.8984 56.2451 52.2275 56.9165 51.3994 56.9171Z" stroke="#F5F5F7"/>
    <path d="M6.89844 15.1011C5.79387 15.1011 4.89844 14.2056 4.89844 13.1011V2.60107C4.89844 1.77265 5.57001 1.10107 6.39844 1.10107C7.22686 1.10107 7.89844 1.77265 7.89844 2.60107V10.1011C7.89844 11.2056 8.79387 12.1011 9.89844 12.1011H16.3984C17.2269 12.1011 17.8984 12.7726 17.8984 13.6011C17.8984 14.4295 17.2269 15.1011 16.3984 15.1011H6.89844Z" fill="#C5C5CF"/>
    <path d="M6.89844 15.1011C5.79387 15.1011 4.89844 14.2056 4.89844 13.1011V2.60107C4.89844 1.77265 5.57001 1.10107 6.39844 1.10107C7.22686 1.10107 7.89844 1.77265 7.89844 2.60107V10.1011C7.89844 11.2056 8.79387 12.1011 9.89844 12.1011H16.3984C17.2269 12.1011 17.8984 12.7726 17.8984 13.6011C17.8984 14.4295 17.2269 15.1011 16.3984 15.1011H6.89844Z" stroke="#F5F5F7"/>
</svg>
