<svg xmlns="http://www.w3.org/2000/svg" fill="none" viewBox="0 0 64 64">
  <path stroke="#C5C5CF" stroke-width="3" d="M23.2166 17.5107h17.5666c3.1513 0 5.7059 2.5546 5.7059 5.7059v17.5666c0 3.1512-2.5546 5.7059-5.7059 5.7059H23.2166c-3.1512 0-5.7059-2.5547-5.7059-5.7059V23.2166c0-3.1513 2.5547-5.7059 5.7059-5.7059z"/>
  <path fill="#2C5EF6" d="M30.9164 12.061c.0074.0081.0169.0137.0244.0217.0402.0419.0851.0782.1299.1151.0309.0255.0596.0535.0923.0761.0524.0365.1096.0655.1667.095.0296.0152.0569.0343.0875.0475.0718.0311.1479.053.2251.0725.0191.0048.0369.0134.0562.0174.0973.0203.1979.0315.3011.0315.1033 0 .2039-.0112.3011-.0315.0193-.004.0371-.0126.0562-.0174.0772-.0195.1533-.0414.2252-.0725.0305-.0132.0579-.0323.0875-.0475.0571-.0295.1143-.0585.1667-.095.0327-.0226.0613-.0506.0922-.0761.0449-.0369.0898-.0732.1299-.1151.0076-.008.017-.0136.0245-.0217l4.4963-4.91357c.547-.5986.5061-1.52698-.0917-2.07469-.5994-.54914-1.5285-.50541-2.0747.09176l-1.945 2.12551V1.4682C33.4678.657392 32.8104 0 31.9996 0s-1.4682.657392-1.4682 1.4682v5.82181L28.5865 5.1645c-.547-.59717-1.4761-.63946-2.0747-.09176-.5979.54771-.6387 1.47609-.0918 2.07469l4.4964 4.91357zM33.0829 51.9389c-.007-.0076-.016-.0126-.0231-.02-.0614-.0644-.129-.1221-.2012-.1745-.0023-.0017-.0043-.0038-.0066-.0054-.2407-.1726-.5336-.2768-.8524-.2768-.3187 0-.6116.1042-.8524.2768-.0023.0016-.0042.0037-.0065.0054-.0722.0524-.1398.1101-.2012.1745-.0071.0074-.0161.0124-.0231.02L26.42 56.8525c-.5469.5986-.5061 1.527.0918 2.0747.5986.5484 1.5277.5047 2.0747-.0918l1.9449-2.1255v5.8218c0 .8108.6574 1.4682 1.4682 1.4682s1.4682-.6574 1.4682-1.4682v-5.8218l1.945 2.1255c.2896.3162.686.4767 1.0839.4767.3534 0 .709-.1276.9908-.3849.5978-.5477.6387-1.4761.0917-2.0747l-4.4963-4.9136zM62.5315 30.5317h-5.8218l2.1255-1.9449c.5979-.5477.6387-1.4761.0917-2.0747-.5477-.5972-1.4761-.6395-2.0747-.0918l-4.9136 4.4964c-.0081.0074-.0137.0168-.0216.0244-.0419.0401-.0782.085-.1151.1299-.0255.0309-.0535.0595-.0762.0922-.0364.0525-.0654.1097-.0949.1668-.0152.0295-.0343.0569-.0476.0875-.031.0718-.053.1479-.0724.2251-.0048.0191-.0134.0369-.0174.0562-.0203.0973-.0315.1978-.0315.3011 0 .1033.0112.2038.0315.3011.004.0193.0126.0371.0174.0562.0194.0772.0414.1533.0724.2251.0133.0306.0324.058.0476.0875.0295.0571.0585.1143.0949.1668.0227.0327.0507.0613.0762.0922.0369.0449.0732.0898.1151.1299.0079.0076.0135.017.0216.0244l4.9136 4.4964c.2818.2581.6374.385.9908.385.3979 0 .7943-.1606 1.0839-.4768.547-.5986.5062-1.527-.0917-2.0747l-2.1255-1.9449h5.8218c.8108 0 1.4682-.6574 1.4682-1.4682s-.6574-1.4682-1.4682-1.4682zM12.3686 32.6704c.0153-.0297.0346-.0572.0478-.088.0307-.0708.0522-.1459.0715-.222.0051-.0202.0142-.039.0185-.0595.0202-.0972.0314-.1977.0314-.3009 0-.1032-.0112-.2037-.0314-.3009-.0043-.0205-.0134-.0393-.0185-.0596-.0193-.076-.0408-.1512-.0715-.2219-.0132-.0308-.0325-.0583-.0478-.088-.0294-.0569-.0582-.1139-.0945-.1661-.0229-.0329-.0511-.0618-.0767-.0929-.0368-.0446-.0729-.0895-.1147-.1294-.0079-.0076-.0136-.017-.0217-.0244l-4.91357-4.4964c-.59932-.5491-1.52841-.5054-2.07469.0918-.54699.5986-.50612 1.5269.09176 2.0747l2.12551 1.9449H1.4682C.657392 30.5318 0 31.1892 0 32s.657392 1.4682 1.4682 1.4682h5.82181L5.1645 35.4131c-.59788.5477-.63875 1.4761-.09176 2.0747.28963.3162.68607.4767 1.08395.4767.35342 0 .709-.1276.99074-.3849l4.91357-4.4964c.0081-.0074.0138-.0168.0217-.0244.0418-.04.0779-.0848.1147-.1294.0256-.0311.0538-.06.0767-.0929.0363-.0522.0651-.1092.0945-.1661z"/>
</svg>
