<svg xmlns="http://www.w3.org/2000/svg" fill="none" viewBox="0 0 64 64">
  <rect width="61" height="61" x="1.5" y="1.5" stroke="#C5C5CF" stroke-width="3" rx="8.5"/>
  <circle cx="9.5" cy="9.5" r="2.5" fill="#C5C5CF"/>
  <circle cx="16.5" cy="9.5" r="2.5" fill="#C5C5CF"/>
  <circle cx="23.5" cy="9.5" r="2.5" fill="#C5C5CF"/>
  <path fill="#2C5EF6" d="M41.75 19c1.2188 0 2.3438.3281 3.375.9375 1.0312.6094 1.8281 1.4531 2.4375 2.4844.6094 1.0312.9375 2.1562.9375 3.375v2.5781c0 .3281-.1406.6094-.3281.7969-.2344.2343-.5157.3281-.7969.3281-.3281 0-.6094-.0938-.7969-.3281-.2343-.1875-.3281-.4688-.3281-.7969V25.75c0-1.2188-.4688-2.2969-1.3594-3.1875C44 21.7188 42.9219 21.25 41.7031 21.25c-1.2656 0-2.3437.4688-3.1875 1.3594-.8437.8906-1.2656 1.9687-1.2656 3.1875V28h3c.6094 0 1.125.2344 1.5938.6562.4218.4688.6562.9844.6562 1.5938v10.5c0 .6562-.2344 1.1719-.6562 1.5938-.4688.4687-.9844.6562-1.5938.6562h-16.5c-.6562 0-1.1719-.1875-1.5938-.6562-.4687-.4219-.6562-.9376-.6562-1.5938v-10.5c0-.6094.1875-1.125.6562-1.5938.4219-.4218.9376-.6562 1.5938-.6562H35v-2.25c0-1.2188.2812-2.3438.8906-3.375.6094-1.0312 1.4532-1.8281 2.4844-2.4375C39.4062 19.3281 40.5312 19 41.75 19zm-1.5 11.25h-16.5v10.5h16.5v-10.5z"/>
  <path fill="#2C5EF6" d="M46.5781 29.1719l.3124-.2499-.0278-.0347-.0347-.0278-.2499.3124zm-1.6875-6.6094l.283-.2829-.0079-.0075-.2751.2904zM37.25 28h-.4v.4h.4V28zm4.5938.6562l.2973-.2675-.0141-.0157-.0157-.0141-.2675.2973zM22.1562 42.3438l.2974-.2676-.0141-.0157-.0157-.0141-.2676.2974zM35 28v.4h.4V28H35zm5.25 2.25h.4v-.4h-.4v.4zm-16.5 0v-.4h-.4v.4h.4zm0 10.5h-.4v.4h.4v-.4zm16.5 0v.4h.4v-.4h-.4zm1.5-21.35c1.1432 0 2.1984.3068 3.1715.8819l.407-.6888c-1.0894-.6437-2.2842-.9931-3.5785-.9931v.8zm3.1715.8819c.9666.5711 1.7175 1.3633 2.2966 2.3435l.6888-.407c-.6396-1.0824-1.4825-1.9777-2.5784-2.6253l-.407.6888zm2.2966 2.3435c.5751.9731.8819 2.0283.8819 3.1715h.8c0-1.2944-.3494-2.4892-.9931-3.5785l-.6888.407zm.8819 3.1715v2.5781h.8v-2.5781h-.8zm0 2.5781c0 .2122-.0912.3943-.211.514l.5657.5657c.2553-.2552.4453-.6356.4453-1.0797h-.8zm-.211.514c-.1515.1515-.3272.211-.514.211v.8c.3757 0 .7625-.128 1.0797-.4453l-.5657-.5657zm-.514.211c-.2544 0-.3985-.0704-.4845-.178l-.6247.4998c.2889.3611.7074.4782 1.1092.4782v-.8zm-.547-.2405c-.1076-.086-.178-.2301-.178-.4845h-.8c0 .4018.1171.8203.4782 1.1092l.4998-.6247zm-.178-.4845V25.75h-.8v2.625h.8zm0-2.625c0-1.3318-.5159-2.5098-1.4765-3.4703l-.5657.5656c.8206.8207 1.2422 1.799 1.2422 2.9047h.8zm-1.4843-3.4779c-.9579-.9075-2.1323-1.4221-3.4626-1.4221v.8c1.1072 0 2.0891.4229 2.9124 1.2029l.5502-.5808zM41.7031 20.85c-1.3747 0-2.558.5134-3.4779 1.4843l.5808.5502c.7677-.8104 1.7406-1.2345 2.8971-1.2345v-.8zm-3.4779 1.4843c-.9151.9659-1.3752 2.1429-1.3752 3.4626h.8c0-1.1179.3836-2.0971 1.156-2.9124l-.5808-.5502zM36.85 25.7969V28h.8v-2.2031h-.8zm.4 2.6031h3v-.8h-3v.8zm3 0c.4925 0 .9162.1846 1.3262.5536l.5351-.5947c-.5275-.4748-1.135-.7589-1.8613-.7589v.8zm1.2964.5238c.369.41.5536.8337.5536 1.3262h.8c0-.7263-.2841-1.3338-.7589-1.8613l-.5947.5351zM42.1 30.25v10.5h.8v-10.5h-.8zm0 10.5c0 .5463-.1894.9612-.5391 1.3109l.5657.5657c.4941-.4941.7734-1.1104.7734-1.8766h-.8zm-.5391 1.3109c-.3888.3888-.8005.5391-1.3109.5391v.8c.7083 0 1.3279-.2247 1.8766-.7734l-.5657-.5657zM40.25 42.6h-16.5v.8h16.5v-.8zm-16.5 0c-.5663 0-.9648-.1553-1.2964-.5238l-.5947.5351c.5121.569 1.1449.7887 1.8911.7887v-.8zm-1.3262-.5536c-.3685-.3316-.5238-.7301-.5238-1.2964h-.8c0 .7462.2197 1.379.7887 1.8911l.5351-.5947zM21.9 40.75v-10.5h-.8v10.5h.8zm0-10.5c0-.5104.1503-.9221.5391-1.3109l-.5657-.5657c-.5487.5487-.7734 1.1683-.7734 1.8766h.8zm.5391-1.3109c.3497-.3497.7646-.5391 1.3109-.5391v-.8c-.7662 0-1.3825.2793-1.8766.7734l.5657.5657zM23.75 28.4H35v-.8H23.75v.8zM35.4 28v-2.25h-.8V28h.8zm0-2.25c0-1.154.2654-2.2075.835-3.1715l-.6887-.407C34.8971 23.27 34.6 24.4665 34.6 25.75h.8zm.835-3.1715c.5712-.9666 1.3634-1.7175 2.3435-2.2966l-.407-.6888c-1.0824.6396-1.9777 1.4825-2.6252 2.5784l.6887.407zm2.3435-2.2966c.9731-.5751 2.0283-.8819 3.1715-.8819v-.8c-1.2943 0-2.4891.3494-3.5785.9931l.407.6888zM40.25 29.85h-16.5v.8h16.5v-.8zm-16.9.4v10.5h.8v-10.5h-.8zm.4 10.9h16.5v-.8h-16.5v.8zm16.9-.4v-10.5h-.8v10.5h.8z"/>
</svg>
