<svg width="64" height="64" viewBox="0 0 64 64" fill="none" xmlns="http://www.w3.org/2000/svg">
<g clip-path="url(#clip0)">
<rect width="64" height="64" fill="transparency"/>
<path d="M37.8182 4C31.4541 4 25.9799 7.50971 22.9318 12.6136C21.4903 11.905 19.9199 11.4091 18.2045 11.4091C12.1968 11.4091 7.29545 16.3105 7.29545 22.3182C7.29545 22.9121 7.43144 23.4714 7.52273 24.0455C3.13166 25.9461 0 30.2008 0 35.2727C0 42.0837 5.55262 47.6364 12.3636 47.6364H15.5455C17.9462 54.4105 24.4146 59.2727 32 59.2727C39.5854 59.2727 46.0538 54.4105 48.4545 47.6364H49.7273C49.7651 47.6378 49.803 47.6378 49.8409 47.6364C57.7547 47.0659 64 40.4075 64 32.3636C64 26.1879 60.2697 20.945 54.9773 18.5455C53.5852 10.301 46.4456 4 37.8182 4ZM37.8182 6.90909C45.257 6.90909 51.3398 12.4732 52.2273 19.6591C52.2601 19.9223 52.3642 20.1716 52.5285 20.3799C52.6927 20.5882 52.9108 20.7476 53.1591 20.8409C57.7958 22.6228 61.0909 27.0848 61.0909 32.3636C61.0909 38.9051 56.0447 44.2654 49.6364 44.7273H49.2045C49.3635 43.7825 49.4545 42.8073 49.4545 41.8182C49.4545 32.1955 41.6227 24.3636 32 24.3636C22.3774 24.3636 14.5455 32.1955 14.5455 41.8182C14.5455 42.8073 14.6365 43.7825 14.7955 44.7273H12.3636C7.12481 44.7273 2.90909 40.5116 2.90909 35.2727C2.90909 31.0211 5.68789 27.4511 9.52273 26.25C9.88393 26.1393 10.1879 25.8924 10.3703 25.5615C10.5527 25.2306 10.5992 24.8418 10.5 24.4773C10.3112 23.7996 10.2045 23.0723 10.2045 22.3182C10.2045 17.8827 13.769 14.3182 18.2045 14.3182C19.8502 14.3182 21.3376 14.807 22.6136 15.6591C22.7866 15.7782 22.9834 15.8585 23.1904 15.8944C23.3973 15.9302 23.6096 15.9209 23.8126 15.8669C24.0156 15.8129 24.2045 15.7156 24.3664 15.5816C24.5282 15.4477 24.659 15.2803 24.75 15.0909C27.1114 10.2523 32.059 6.90909 37.8182 6.90909ZM32 27.2727C40.0505 27.2727 46.5455 33.7677 46.5455 41.8182C46.5455 49.8687 40.0505 56.3636 32 56.3636C23.9495 56.3636 17.4545 49.8687 17.4545 41.8182C17.4545 33.7677 23.9495 27.2727 32 27.2727ZM31.8409 32.3409C31.4794 32.3806 31.1459 32.5543 30.9061 32.8278C30.6663 33.1012 30.5376 33.4546 30.5455 33.8182V41.8182C30.5432 42.0757 30.6093 42.3292 30.7371 42.5528C30.8648 42.7765 31.0497 42.9621 31.2727 43.0909L36.3636 46C36.5308 46.0955 36.7151 46.1572 36.906 46.1814C37.097 46.2057 37.2909 46.1921 37.4766 46.1415C37.6623 46.0908 37.8362 46.0041 37.9884 45.8862C38.1406 45.7684 38.2681 45.6217 38.3636 45.4545C38.4591 45.2874 38.5208 45.1031 38.5451 44.9121C38.5693 44.7212 38.5558 44.5273 38.5051 44.3416C38.4545 44.1559 38.3677 43.9819 38.2499 43.8297C38.132 43.6775 37.9853 43.5501 37.8182 43.4545L33.4545 40.9545V33.8182C33.4576 33.6233 33.4215 33.4299 33.3483 33.2493C33.2751 33.0687 33.1664 32.9046 33.0287 32.7668C32.8909 32.629 32.7268 32.5203 32.5462 32.4471C32.3656 32.374 32.1721 32.3379 31.9773 32.3409C31.9318 32.3388 31.8863 32.3388 31.8409 32.3409V32.3409Z" fill="#C5C5CF" stroke="#C5C5CF"/>
<mask id="mask0" mask-type="alpha" maskUnits="userSpaceOnUse" x="-1" y="3" width="66" height="57">
<path d="M37.8182 4C31.4541 4 25.9799 7.50971 22.9318 12.6136C21.4903 11.905 19.9199 11.4091 18.2045 11.4091C12.1968 11.4091 7.29545 16.3105 7.29545 22.3182C7.29545 22.9121 7.43144 23.4714 7.52273 24.0455C3.13166 25.9461 0 30.2008 0 35.2727C0 42.0837 5.55262 47.6364 12.3636 47.6364H15.5455C17.9462 54.4105 24.4146 59.2727 32 59.2727C39.5854 59.2727 46.0538 54.4105 48.4545 47.6364H49.7273C49.7651 47.6378 49.803 47.6378 49.8409 47.6364C57.7547 47.0659 64 40.4075 64 32.3636C64 26.1879 60.2697 20.945 54.9773 18.5455C53.5852 10.301 46.4457 4 37.8182 4ZM37.8182 6.90909C45.257 6.90909 51.3398 12.4732 52.2273 19.6591C52.2601 19.9223 52.3642 20.1716 52.5285 20.3799C52.6927 20.5882 52.9108 20.7476 53.1591 20.8409C57.7958 22.6228 61.0909 27.0848 61.0909 32.3636C61.0909 38.9051 56.0447 44.2653 49.6364 44.7273H49.2045C49.3635 43.7825 49.4545 42.8073 49.4545 41.8182C49.4545 32.1955 41.6227 24.3636 32 24.3636C22.3773 24.3636 14.5455 32.1955 14.5455 41.8182C14.5455 42.8073 14.6365 43.7825 14.7955 44.7273H12.3636C7.12481 44.7273 2.90909 40.5116 2.90909 35.2727C2.90909 31.0211 5.68789 27.4511 9.52273 26.25C9.88393 26.1393 10.1879 25.8923 10.3703 25.5615C10.5527 25.2306 10.5992 24.8418 10.5 24.4773C10.3112 23.7996 10.2045 23.0723 10.2045 22.3182C10.2045 17.8827 13.769 14.3182 18.2045 14.3182C19.8502 14.3182 21.3376 14.807 22.6136 15.6591C22.7866 15.7782 22.9834 15.8585 23.1904 15.8944C23.3973 15.9302 23.6096 15.9209 23.8126 15.8669C24.0156 15.8129 24.2045 15.7156 24.3664 15.5816C24.5282 15.4477 24.659 15.2803 24.75 15.0909C27.1114 10.2523 32.059 6.90909 37.8182 6.90909ZM32 27.2727C40.0505 27.2727 46.5455 33.7677 46.5455 41.8182C46.5455 49.8687 40.0505 56.3636 32 56.3636C23.9495 56.3636 17.4545 49.8687 17.4545 41.8182C17.4545 33.7677 23.9495 27.2727 32 27.2727ZM31.8409 32.3409C31.4794 32.3806 31.1459 32.5543 30.9061 32.8278C30.6663 33.1012 30.5376 33.4546 30.5455 33.8182V41.8182C30.5432 42.0757 30.6093 42.3292 30.7371 42.5528C30.8648 42.7765 31.0497 42.9621 31.2727 43.0909L36.3636 46C36.5308 46.0955 36.7151 46.1572 36.906 46.1814C37.097 46.2057 37.2909 46.1921 37.4766 46.1415C37.6623 46.0908 37.8362 46.0041 37.9884 45.8862C38.1406 45.7684 38.2681 45.6217 38.3636 45.4545C38.4591 45.2874 38.5208 45.1031 38.5451 44.9121C38.5694 44.7212 38.5558 44.5273 38.5051 44.3416C38.4545 44.1559 38.3677 43.9819 38.2499 43.8297C38.132 43.6775 37.9853 43.5501 37.8182 43.4545L33.4545 40.9545V33.8182C33.4576 33.6233 33.4215 33.4299 33.3483 33.2493C33.2751 33.0687 33.1664 32.9046 33.0287 32.7668C32.8909 32.629 32.7268 32.5203 32.5462 32.4471C32.3656 32.374 32.1721 32.3379 31.9773 32.3409C31.9318 32.3388 31.8863 32.3388 31.8409 32.3409V32.3409Z" fill="#C5C5CF" stroke="#C5C5CF"/>
</mask>
<g mask="url(#mask0)">
<rect x="14" y="22" width="36" height="38" fill="#2C5EF6"/>
</g>
<circle cx="32" cy="41.5" r="18.5" stroke="#F5F5F7" stroke-width="2"/>
</g>
<defs>
<clipPath id="clip0">
<rect width="64" height="64" fill="white"/>
</clipPath>
</defs>
</svg>
