<svg width="66" height="58" viewBox="0 0 66 58" fill="none" xmlns="http://www.w3.org/2000/svg">
    <path d="M64.8683 22.4297L53.9055 1.84424C53.7104 1.47798 53.3299 1.24881 52.9149 1.24881H52.9143C52.4999 1.24881 52.1194 1.47697 51.9237 1.84311L48.64 7.99148C44.4108 3.97925 38.7145 1.49886 32.4385 1.49886C28.434 1.49886 24.6632 2.50871 21.3569 4.27735C19.1922 2.25114 16.2935 1 13.1014 1C6.42876 1 1 6.42753 1 13.0997C1 18.2911 4.29161 22.7168 8.8923 24.4321C8.88646 24.6487 8.85963 24.8598 8.85963 25.0778C8.85963 34.1644 14.0347 42.0531 21.5849 45.9881V55.8924C21.5849 56.513 22.0877 57.0152 22.7077 57.0152H41.9198C42.54 57.0152 43.0426 56.513 43.0426 55.8924V46.1085C50.7264 42.2178 56.0174 34.2628 56.0174 25.0778C56.0174 24.7409 55.9809 24.4133 55.9669 24.0799H63.8771C64.2713 24.0799 64.637 23.8728 64.8398 23.535C65.0426 23.1973 65.0537 22.7774 64.8683 22.4297ZM3.24561 13.0997C3.24561 7.66665 7.66665 3.24561 13.1014 3.24561C15.4692 3.24561 17.6439 4.08581 19.3451 5.48224C19.9386 5.96953 20.4667 6.53038 20.9328 7.14129C22.1971 8.79833 22.9572 10.8596 22.9572 13.0997C22.9572 18.5351 18.5362 22.9571 13.1014 22.9571C12.4627 22.9571 11.8398 22.8911 11.2348 22.7744C10.4787 22.6287 9.75529 22.3943 9.07105 22.0859C5.64223 20.5413 3.24561 17.0983 3.24561 13.0997ZM40.797 54.7696H23.8305V47.0065V44.5813V37.8025H40.797V44.7016V47.098V54.7696ZM53.7718 25.0778C53.7718 32.9794 49.4432 39.876 43.0426 43.5625V36.6797C43.0426 36.0591 42.54 35.5569 41.9198 35.5569H22.7077C22.0877 35.5569 21.5849 36.0591 21.5849 36.6797V43.4108C15.3234 39.6893 11.1052 32.8752 11.1052 25.0778C11.1052 25.0597 11.1079 25.0422 11.1079 25.024C11.758 25.1326 12.4211 25.2027 13.1014 25.2027C19.7741 25.2027 25.2028 19.773 25.2028 13.0997C25.2028 10.4566 24.3412 8.01663 22.8976 6.02433C25.7729 4.57838 29.0068 3.74447 32.4385 3.74447C38.3373 3.74447 43.683 6.15266 47.5486 10.0353L40.9297 22.4286C40.7434 22.7762 40.7544 23.1962 40.9571 23.535C41.16 23.8728 41.5252 24.0799 41.9198 24.0799H53.7213C53.7368 24.4131 53.7718 24.7409 53.7718 25.0778ZM55.7675 21.8343H53.4984H43.7927L49.1331 11.835L50.2734 9.69983L52.9128 4.75758L62.007 21.8343H55.7675Z" fill="#C5C5CF" stroke="#C5C5CF"/>
    <mask id="mask0" mask-type="alpha" maskUnits="userSpaceOnUse" x="0" y="0" width="66" height="58">
        <path d="M64.8683 22.4297L53.9055 1.84424C53.7104 1.47798 53.3299 1.24881 52.9149 1.24881H52.9143C52.4999 1.24881 52.1194 1.47697 51.9237 1.84311L48.64 7.99148C44.4108 3.97925 38.7145 1.49886 32.4385 1.49886C28.434 1.49886 24.6632 2.50871 21.3569 4.27735C19.1922 2.25114 16.2935 1 13.1014 1C6.42876 1 1 6.42753 1 13.0997C1 18.2911 4.29161 22.7168 8.8923 24.4321C8.88646 24.6487 8.85963 24.8598 8.85963 25.0778C8.85963 34.1644 14.0347 42.0531 21.5849 45.9881V55.8924C21.5849 56.513 22.0877 57.0152 22.7077 57.0152H41.9198C42.54 57.0152 43.0426 56.513 43.0426 55.8924V46.1085C50.7264 42.2178 56.0174 34.2628 56.0174 25.0778C56.0174 24.7409 55.9809 24.4133 55.9669 24.0799H63.8771C64.2713 24.0799 64.637 23.8728 64.8398 23.535C65.0426 23.1973 65.0537 22.7774 64.8683 22.4297ZM3.24561 13.0997C3.24561 7.66665 7.66665 3.24561 13.1014 3.24561C15.4692 3.24561 17.6439 4.08581 19.3451 5.48224C19.9386 5.96953 20.4667 6.53038 20.9328 7.14129C22.1971 8.79833 22.9572 10.8596 22.9572 13.0997C22.9572 18.5351 18.5362 22.9571 13.1014 22.9571C12.4627 22.9571 11.8398 22.8911 11.2348 22.7744C10.4787 22.6287 9.75529 22.3943 9.07105 22.0859C5.64223 20.5413 3.24561 17.0983 3.24561 13.0997ZM40.797 54.7696H23.8305V47.0065V44.5813V37.8025H40.797V44.7016V47.098V54.7696ZM53.7718 25.0778C53.7718 32.9794 49.4432 39.876 43.0426 43.5625V36.6797C43.0426 36.0591 42.54 35.5569 41.9198 35.5569H22.7077C22.0877 35.5569 21.5849 36.0591 21.5849 36.6797V43.4108C15.3234 39.6893 11.1052 32.8752 11.1052 25.0778C11.1052 25.0597 11.1079 25.0422 11.1079 25.024C11.758 25.1326 12.4211 25.2027 13.1014 25.2027C19.7741 25.2027 25.2028 19.773 25.2028 13.0997C25.2028 10.4566 24.3412 8.01663 22.8976 6.02433C25.7729 4.57838 29.0068 3.74447 32.4385 3.74447C38.3373 3.74447 43.683 6.15266 47.5486 10.0353L40.9297 22.4286C40.7434 22.7762 40.7544 23.1962 40.9571 23.535C41.16 23.8728 41.5252 24.0799 41.9198 24.0799H53.7213C53.7368 24.4131 53.7718 24.7409 53.7718 25.0778ZM55.7675 21.8343H53.4984H43.7927L49.1331 11.835L50.2734 9.69983L52.9128 4.75758L62.007 21.8343H55.7675Z" fill="#C5C5CF" stroke="#C5C5CF"/>
    </mask>
    <g mask="url(#mask0)">
        <rect x="21" y="34" width="22.5" height="26" fill="#2C5EF6"/>
        <circle cx="13" cy="13" r="12.5" fill="#2C5EF6"/>
        <path d="M39.1992 24.5L53.1992 -2L67.1992 24.5H39.1992Z" fill="#2C5EF6"/>
    </g>
</svg>
