<svg width="66" height="57" viewBox="0 0 66 57" fill="none" xmlns="http://www.w3.org/2000/svg">
    <path d="M38.8182 1C32.4541 1 26.9799 4.50971 23.9318 9.61364C22.4903 8.90505 20.9199 8.40909 19.2045 8.40909C13.1968 8.40909 8.29545 13.3105 8.29545 19.3182C8.29545 19.9121 8.43144 20.4713 8.52273 21.0455C4.13166 22.9461 1 27.2008 1 32.2727C1 39.0837 6.55262 44.6364 13.3636 44.6364H16.5455C18.9462 51.4105 25.4146 56.2727 33 56.2727C40.5854 56.2727 47.0538 51.4105 49.4545 44.6364H50.7273C50.7651 44.6378 50.803 44.6378 50.8409 44.6364C58.7547 44.0659 65 37.4075 65 29.3636C65 23.1879 61.2697 17.945 55.9773 15.5455C54.5852 7.30103 47.4456 1 38.8182 1ZM38.8182 3.90909C46.257 3.90909 52.3398 9.47315 53.2273 16.6591C53.2601 16.9223 53.3642 17.1716 53.5285 17.3799C53.6927 17.5882 53.9108 17.7476 54.1591 17.8409C58.7958 19.6228 62.0909 24.0848 62.0909 29.3636C62.0909 35.9051 57.0447 41.2654 50.6364 41.7273H50.2045C50.3635 40.7825 50.4545 39.8073 50.4545 38.8182C50.4545 29.1955 42.6227 21.3636 33 21.3636C23.3773 21.3636 15.5455 29.1955 15.5455 38.8182C15.5455 39.8073 15.6365 40.7825 15.7955 41.7273H13.3636C8.12481 41.7273 3.90909 37.5116 3.90909 32.2727C3.90909 28.0211 6.68789 24.4511 10.5227 23.25C10.8839 23.1393 11.1879 22.8924 11.3703 22.5615C11.5527 22.2306 11.5992 21.8418 11.5 21.4773C11.3112 20.7996 11.2045 20.0723 11.2045 19.3182C11.2045 14.8827 14.769 11.3182 19.2045 11.3182C20.8502 11.3182 22.3376 11.807 23.6136 12.6591C23.7866 12.7782 23.9834 12.8585 24.1904 12.8944C24.3973 12.9302 24.6096 12.9209 24.8126 12.8669C25.0156 12.8129 25.2045 12.7156 25.3664 12.5816C25.5282 12.4477 25.659 12.2803 25.75 12.0909C28.1114 7.25231 33.059 3.90909 38.8182 3.90909ZM33 24.2727C41.0505 24.2727 47.5455 30.7677 47.5455 38.8182C47.5455 46.8687 41.0505 53.3636 33 53.3636C24.9495 53.3636 18.4545 46.8687 18.4545 38.8182C18.4545 30.7677 24.9495 24.2727 33 24.2727ZM32.8409 29.3409C32.4794 29.3806 32.1459 29.5543 31.9061 29.8278C31.6663 30.1012 31.5376 30.4546 31.5455 30.8182V38.8182C31.5432 39.0757 31.6093 39.3292 31.7371 39.5528C31.8648 39.7765 32.0497 39.9621 32.2727 40.0909L37.3636 43C37.5308 43.0955 37.7151 43.1572 37.906 43.1814C38.097 43.2057 38.2909 43.1921 38.4766 43.1415C38.6623 43.0908 38.8362 43.0041 38.9884 42.8862C39.1406 42.7684 39.2681 42.6217 39.3636 42.4545C39.4591 42.2874 39.5208 42.1031 39.5451 41.9121C39.5693 41.7212 39.5558 41.5273 39.5051 41.3416C39.4545 41.1559 39.3677 40.9819 39.2499 40.8297C39.132 40.6775 38.9853 40.5501 38.8182 40.4545L34.4545 37.9545V30.8182C34.4576 30.6233 34.4215 30.4299 34.3483 30.2493C34.2751 30.0687 34.1664 29.9046 34.0287 29.7668C33.8909 29.629 33.7268 29.5203 33.5462 29.4471C33.3656 29.374 33.1721 29.3379 32.9773 29.3409C32.9318 29.3388 32.8863 29.3388 32.8409 29.3409Z" fill="#C5C5CF" stroke="#C5C5CF"/>

    <mask id="mask0" mask-type="alpha" maskUnits="userSpaceOnUse" x="-1" y="-1" width="66" height="57">
        <path d="M38.8182 1C32.4541 1 26.9799 4.50971 23.9318 9.61364C22.4903 8.90505 20.9199 8.40909 19.2045 8.40909C13.1968 8.40909 8.29545 13.3105 8.29545 19.3182C8.29545 19.9121 8.43144 20.4713 8.52273 21.0455C4.13166 22.9461 1 27.2008 1 32.2727C1 39.0837 6.55262 44.6364 13.3636 44.6364H16.5455C18.9462 51.4105 25.4146 56.2727 33 56.2727C40.5854 56.2727 47.0538 51.4105 49.4545 44.6364H50.7273C50.7651 44.6378 50.803 44.6378 50.8409 44.6364C58.7547 44.0659 65 37.4075 65 29.3636C65 23.1879 61.2697 17.945 55.9773 15.5455C54.5852 7.30103 47.4456 1 38.8182 1ZM38.8182 3.90909C46.257 3.90909 52.3398 9.47315 53.2273 16.6591C53.2601 16.9223 53.3642 17.1716 53.5285 17.3799C53.6927 17.5882 53.9108 17.7476 54.1591 17.8409C58.7958 19.6228 62.0909 24.0848 62.0909 29.3636C62.0909 35.9051 57.0447 41.2654 50.6364 41.7273H50.2045C50.3635 40.7825 50.4545 39.8073 50.4545 38.8182C50.4545 29.1955 42.6227 21.3636 33 21.3636C23.3773 21.3636 15.5455 29.1955 15.5455 38.8182C15.5455 39.8073 15.6365 40.7825 15.7955 41.7273H13.3636C8.12481 41.7273 3.90909 37.5116 3.90909 32.2727C3.90909 28.0211 6.68789 24.4511 10.5227 23.25C10.8839 23.1393 11.1879 22.8924 11.3703 22.5615C11.5527 22.2306 11.5992 21.8418 11.5 21.4773C11.3112 20.7996 11.2045 20.0723 11.2045 19.3182C11.2045 14.8827 14.769 11.3182 19.2045 11.3182C20.8502 11.3182 22.3376 11.807 23.6136 12.6591C23.7866 12.7782 23.9834 12.8585 24.1904 12.8944C24.3973 12.9302 24.6096 12.9209 24.8126 12.8669C25.0156 12.8129 25.2045 12.7156 25.3664 12.5816C25.5282 12.4477 25.659 12.2803 25.75 12.0909C28.1114 7.25231 33.059 3.90909 38.8182 3.90909ZM33 24.2727C41.0505 24.2727 47.5455 30.7677 47.5455 38.8182C47.5455 46.8687 41.0505 53.3636 33 53.3636C24.9495 53.3636 18.4545 46.8687 18.4545 38.8182C18.4545 30.7677 24.9495 24.2727 33 24.2727ZM32.8409 29.3409C32.4794 29.3806 32.1459 29.5543 31.9061 29.8278C31.6663 30.1012 31.5376 30.4546 31.5455 30.8182V38.8182C31.5432 39.0757 31.6093 39.3292 31.7371 39.5528C31.8648 39.7765 32.0497 39.9621 32.2727 40.0909L37.3636 43C37.5308 43.0955 37.7151 43.1572 37.906 43.1814C38.097 43.2057 38.2909 43.1921 38.4766 43.1415C38.6623 43.0908 38.8362 43.0041 38.9884 42.8862C39.1406 42.7684 39.2681 42.6217 39.3636 42.4545C39.4591 42.2874 39.5208 42.1031 39.5451 41.9121C39.5693 41.7212 39.5558 41.5273 39.5051 41.3416C39.4545 41.1559 39.3677 40.9819 39.2499 40.8297C39.132 40.6775 38.9853 40.5501 38.8182 40.4545L34.4545 37.9545V30.8182C34.4576 30.6233 34.4215 30.4299 34.3483 30.2493C34.2751 30.0687 34.1664 29.9046 34.0287 29.7668C33.8909 29.629 33.7268 29.5203 33.5462 29.4471C33.3656 29.374 33.1721 29.3379 32.9773 29.3409C32.9318 29.3388 32.8863 29.3388 32.8409 29.3409Z" fill="#C5C5CF" stroke="#C5C5CF"/>
    </mask>
    <g mask="url(#mask0)">
        <rect x="15" y="18" width="36" height="38" fill="#2C5EF6"/>
    </g>
</svg>

