<svg width="64" height="64" viewBox="0 0 64 64" fill="none" xmlns="http://www.w3.org/2000/svg">
<rect width="64" height="64" fill="transparency"/>
<path d="M29.6211 43.1914C30.4414 43.1914 31.0859 42.875 31.5312 42.2188L42.4414 25.5898C42.7578 25.1094 42.8867 24.6523 42.8867 24.2305C42.8867 23.0938 42.0195 22.25 40.8477 22.25C40.0508 22.25 39.5469 22.543 39.0547 23.3047L29.5742 38.2578L24.7695 32.3633C24.3242 31.8242 23.832 31.5898 23.1523 31.5898C21.9688 31.5898 21.1133 32.4336 21.1133 33.582C21.1133 34.0977 21.2656 34.543 21.7109 35.0469L27.7578 42.3125C28.2617 42.9102 28.8477 43.1914 29.6211 43.1914Z" fill="#2C5EF6"/>
<path fill-rule="evenodd" clip-rule="evenodd" d="M3.79735 25.0829C1.42603 34.9047 4.4462 45.2831 11.4958 52.3327C12.8098 53.6477 14.2678 54.8487 15.8538 55.9057C22.2738 60.1857 29.9758 61.7097 37.5418 60.1977C43.5038 59.0045 48.8187 56.0386 52.8984 51.6931V58.4169C52.8984 59.2457 53.5706 59.9174 54.3994 59.9169C55.2275 59.9163 55.8984 59.2449 55.8984 58.4169V48.1009C55.8984 48.0416 55.8959 47.983 55.8908 47.9251C55.8971 47.9156 55.9035 47.9062 55.9098 47.8967L55.8865 47.8812C55.7771 46.88 54.9288 46.1009 53.8984 46.1009H53.2172L52.4988 45.6217C52.3913 45.7829 52.2822 45.9427 52.1714 46.1009H43.3984C42.57 46.1009 41.8984 46.7724 41.8984 47.6009C41.8984 48.4293 42.57 49.1009 43.3984 49.1009H49.705C46.2323 52.7107 41.751 55.1758 36.7368 56.1777C30.2458 57.4747 23.6368 56.1677 18.1298 52.4947C16.7658 51.5867 15.5168 50.5587 14.3868 49.4277C8.40738 43.4474 5.80553 34.6731 7.71442 26.332C7.96689 25.2289 7.38102 24.0767 6.30295 23.7324C5.22435 23.388 4.06308 23.9823 3.79735 25.0829Z" fill="#C5C5CF"/>
<path fill-rule="evenodd" clip-rule="evenodd" d="M7.89844 15.7722C7.88082 15.7985 7.86325 15.8247 7.8457 15.8511L7.89844 15.8862V16.1016C7.89844 17.2061 8.79387 18.1016 9.89844 18.1016H11.2175L11.2557 18.1271C11.2614 18.1186 11.267 18.1101 11.2727 18.1016H19.3984C20.2269 18.1016 20.8984 17.43 20.8984 16.6016C20.8984 15.7731 20.2269 15.1016 19.3984 15.1016H13.6286C21.742 6.26399 35.3411 4.39517 45.6267 11.2541C54.3794 17.0917 58.4443 27.7967 55.9383 37.8553C55.6646 38.9538 56.2302 40.1166 57.3025 40.4798C58.3742 40.8428 59.5452 40.2691 59.8317 39.1744C62.9252 27.3564 58.1981 14.7074 47.8997 7.84305C36.0333 -0.0688136 20.384 1.98589 10.8984 12.0172V5.60156C10.8984 4.77314 10.2269 4.10156 9.39844 4.10156C8.57001 4.10156 7.89844 4.77314 7.89844 5.60156V15.7722Z" fill="#C5C5CF"/>
</svg>
