<svg xmlns="http://www.w3.org/2000/svg" fill="none" viewBox="0 0 78 68">
  <path stroke="#C5C5CF" stroke-linecap="round" stroke-linejoin="round" stroke-width="3" d="M3.99918 49.0625S-2.33398 53.4375 7.33243 60c7.99977 4.8125 32.66647 10.0625 51.33347 0 3.3332-1.8958 8-6.5625 3.3333-10.9375"/>
  <path stroke="#C5C5CF" stroke-linecap="round" stroke-linejoin="round" stroke-width="3" d="M3.99918 34.625S-2.33398 39 7.33243 45.5625c7.99977 4.8125 32.66647 10.0625 51.33347 0 3.3332-1.8958 8-6.5625 3.3333-10.9375"/>
  <path stroke="#C5C5CF" stroke-width="3" d="M63.5 25c0 1.4367-.6592 2.9236-2.0931 4.4068-1.4409 1.4905-3.5984 2.9012-6.3807 4.1185C49.466 35.9578 41.6797 37.5 33 37.5c-8.6797 0-16.466-1.5422-22.0262-3.9747-2.78232-1.2173-4.93975-2.628-6.38066-4.1185C3.15922 27.9236 2.5 26.4367 2.5 25c0-1.4367.65922-2.9236 2.09314-4.4068 1.44091-1.4905 3.59834-2.9012 6.38066-4.1185C16.534 14.0422 24.3203 12.5 33 12.5c8.6797 0 16.466 1.5422 22.0262 3.9747 2.7823 1.2173 4.9398 2.628 6.3807 4.1185C62.8408 22.0764 63.5 23.5633 63.5 25z"/>
  <path stroke="#C5C5CF" stroke-linecap="round" stroke-width="3" d="M12 29.8125s19.3333-7.875 42 0"/>
  <circle cx="61" cy="17" r="15.5" fill="#F5F5F7" stroke="#F5F5F7" stroke-width="3"/>
  <circle cx="61" cy="17" r="12.5" fill="#F5F5F7" stroke="#2C5EF6" stroke-width="3"/>
  <path fill="#2C5EF6" d="M62.6875 17.25l3.7617 3.7969c.1055.1054.1758.2461.1758.3867 0 .1758-.0703.3164-.1758.3867l-.8789.8789c-.1055.1406-.2461.1758-.3867.1758-.1758 0-.3164-.0352-.3867-.1758L61 18.9375l-3.7969 3.7617c-.1054.1406-.2461.1758-.3867.1758-.1758 0-.3164-.0352-.3867-.1758l-.8789-.8789c-.1406-.0703-.1758-.2109-.1758-.3867 0-.1406.0352-.2813.1758-.3867l3.7617-3.7969-3.7617-3.7969c-.1406-.0703-.1758-.2109-.1758-.3867 0-.1406.0352-.2812.1758-.3867l.8789-.8789c.0703-.1055.2109-.1758.3867-.1758.1406 0 .2813.0703.3867.1758L61 15.5625l3.7969-3.7617c.0703-.1055.2109-.1758.3867-.1758.1406 0 .2812.0703.3867.1758l.8789.8789c.1055.1055.1758.2461.1758.3867 0 .1758-.0703.3164-.1758.3867L62.6875 17.25z"/>
</svg>
