<svg xmlns="http://www.w3.org/2000/svg" fill="none" viewBox="0 0 64 64">
  <rect width="61" height="61" x="1.5" y="1.5" stroke="#C5C5CF" stroke-width="3" rx="8.5"/>
  <path fill="#2C5EF6" d="M33.4902 50V38.3398h4.0821v-2.4316H26.4688v2.4316h4.0722V50h2.9492zM39.666 45.9766c.0879 2.6562 2.3242 4.2578 5.6836 4.2578 3.5254 0 5.6836-1.7383 5.6836-4.4922 0-2.1387-1.2988-3.3399-4.2773-3.9356l-1.4942-.3027c-1.6601-.332-2.3437-.8691-2.3437-1.7383 0-1.0351.9765-1.7187 2.4316-1.7187 1.4844 0 2.5293.7226 2.627 1.9238h2.7832c-.0489-2.5879-2.1192-4.3066-5.4102-4.3066-3.1348 0-5.3808 1.7089-5.3808 4.2871 0 2.0996 1.3769 3.4472 4.1894 4.0039l1.4844.2929c1.7676.3614 2.4316.8887 2.4316 1.8165 0 1.0351-1.0742 1.7968-2.6465 1.7968-1.6015 0-2.7929-.7031-2.9785-1.8847H39.666z"/>
</svg>
