<svg xmlns="http://www.w3.org/2000/svg" fill="none" viewBox="0 0 65 64">
  <path fill="#C5C5CF" d="M55.5805.00000426C53.4921-.00209458 51.4775.771867 49.9276 2.17164c-1.5499 1.39977-2.5243 3.32549-2.7342 5.40331-.2099 2.07783.3598 4.15955 1.5984 5.84095s3.0578 2.8427 5.1045 3.2582v11.9583c-.0009.4464-.1787.8743-.4943 1.1899-.3157.3157-.7436.4934-1.19.4943H40.4222v-5.0528c0-.4466-.1774-.875-.4933-1.1909-.3158-.3159-.7442-.4933-1.1909-.4933-.4467 0-.8751.1774-1.191.4933-.3158.3159-.4933.7443-.4933 1.1909v13.4741c0 .4467.1775.8751.4933 1.1909.3159.3159.7443.4933 1.191.4933.4467 0 .8751-.1774 1.1909-.4933.3159-.3158.4933-.7442.4933-1.1909v-5.0528H52.212c1.3396-.0015 2.6239-.5343 3.5712-1.4816.9472-.9472 1.4801-2.2315 1.4816-3.5711V16.6741c2.0466-.4155 3.8658-1.5768 5.1044-3.2582s1.8083-3.76312 1.5984-5.84095c-.2099-2.07782-1.1843-4.00354-2.7341-5.40331C59.6836.771867 57.6689-.00209458 55.5805.00000426zm0 13.47409574c-.9993 0-1.9762-.2964-2.8071-.8516-.831-.5552-1.4786-1.3443-1.861-2.2676-.3825-.92328-.4825-1.93922-.2876-2.91936.195-.98014.6762-1.88046 1.3829-2.5871.7066-.70664 1.6069-1.18787 2.5871-1.38284.9801-.19496 1.9961-.0949 2.9193.28754.9233.38243 1.7124 1.03005 2.2676 1.86098.5553.83092.8516 1.80782.8516 2.80716-.0015 1.33962-.5344 2.62392-1.4816 3.57122-.9473.9472-2.2316 1.48-3.5712 1.4816z"/>
  <path fill="#2C5EF6" d="M25.2639 40.4221c.4466 0 .875-.1774 1.1909-.4933.3159-.3158.4933-.7442.4933-1.1909V25.2638c0-.4466-.1774-.875-.4933-1.1909-.3159-.3159-.7443-.4933-1.1909-.4933-.4467 0-.8751.1774-1.191.4933-.3159.3159-.4933.7443-.4933 1.1909v5.0528H11.7898c-1.3396.0015-2.62391.5344-3.57116 1.4816-.94725.9473-1.48008 2.2316-1.4816 3.5712v11.9582c-2.04476.4174-3.8617 1.5791-5.09857 3.26C.401595 52.2685-.167091 54.3488.042663 56.4251c.209754 2.0764 1.183007 4.0009 2.731067 5.4005C4.32179 63.2251 6.33438 64 8.4213 64c2.0869 0 4.0995-.7749 5.6476-2.1744 1.548-1.3996 2.5213-3.3241 2.731-5.4005.2098-2.0763-.3589-4.1566-1.5958-5.8375-1.2368-1.6809-3.0538-2.8426-5.0985-3.26V35.3694c.0008-.4464.1786-.8743.4942-1.19.3157-.3157.7436-.4934 1.19-.4943h11.7898v5.0528c0 .4467.1774.8751.4933 1.1909.3159.3159.7443.4933 1.191.4933zM13.4741 55.5805c0 .9993-.2964 1.9762-.8516 2.8071-.5552.8309-1.3443 1.4786-2.2676 1.861-.92326.3824-1.93921.4825-2.91935.2875-.98014-.1949-1.88046-.6762-2.5871-1.3828-.70664-.7066-1.18787-1.607-1.38283-2.5871-.19496-.9801-.0949-1.9961.28753-2.9194.38243-.9232 1.03006-1.7124 1.86098-2.2676.83092-.5552 1.80783-.8515 2.80717-.8515 1.33961.0015 2.6239.5343 3.5712 1.4816.9472.9472 1.4801 2.2315 1.4816 3.5712z"/>
</svg>
