<svg xmlns="http://www.w3.org/2000/svg" fill="none" viewBox="0 0 111 24">
  <path fill="#fff" d="M56.489 3.02588c-.5238 0-.9778.17392-1.3619.48696-.3841.34783-.5587.8-.5587 1.35652 0 .55652.1746 1.0087.5587 1.32174s.8381.48696 1.3619.48696c.5238 0 .9429-.17392 1.327-.48696s.5587-.76522.5587-1.32174c0-.55652-.1746-1.04348-.5587-1.35652s-.8381-.48696-1.327-.48696zm1.5713 5.2522h-3.1428V20.5564h3.1428V8.27808zm21.9303 9.70432c-.2095.0348-.4889.1044-.8032.1391-.3841.0348-.8381.0696-1.3619.0696-.8381 0-1.5365-.1391-2.1651-.4174-.5936-.2782-1.1174-.6609-1.5365-1.1478-.419-.487-.7333-1.0783-.9428-1.7739-.2096-.6957-.3143-1.4957-.3143-2.3305 0-1.7739.4539-3.16522 1.327-4.17391.873-.97392 2.165-1.49566 3.8063-1.49566.7683 0 1.5016.10435 2.2.27826.6984.17392 1.2921.4174 1.746.69566l.1397.06956 1.0127-2.60869-.1047-.06957c-.1048-.06956-.3143-.17391-.5937-.31304-.2794-.13913-.6635-.27826-1.0825-.41739-.4191-.13913-.9429-.24348-1.5365-.34783-.5937-.10435-1.2921-.13913-2.0604-.13913-1.1174 0-2.2.17391-3.2127.55652-1.0126.38261-1.8857.93913-2.619 1.63478-.7333.73044-1.327 1.63479-1.746 2.64348-.4191 1.04348-.6286 2.26096-.6286 3.58266 0 1.3565.2095 2.5391.5937 3.5826.3841 1.0435.9428 1.913 1.6412 2.6435.6984.7304 1.5714 1.2869 2.5492 1.6348 1.0127.3826 2.1302.5565 3.3175.5565 1.292 0 2.4444-.1044 3.4222-.2783.9778-.1739 1.7111-.3478 2.1302-.5217l.0698-.0348v-7.7913h-3.2476v5.7739zm17.6349-9.70432h-3.1428V20.5564h3.1428V8.27808zm-1.5716-5.2522c-.5238 0-.9777.17392-1.3619.48696-.3841.34783-.5587.8-.5587 1.35652 0 .55652.1746 1.0087.5587 1.32174.3842.31304.8381.48696 1.3619.48696.5239 0 .9429-.17392 1.327-.48696.3842-.31304.5588-.76522.5588-1.32174 0-.55652-.1746-1.04348-.5588-1.35652-.3841-.31304-.8381-.48696-1.327-.48696z"/>
  <path fill="#fff" fill-rule="evenodd" d="M45.2096 4.38244h1.2572l.0349.06957 7.019 16.13909h-3.4222l-.0349-.0695-1.5714-3.687h-6.9143l-1.5715 3.7217h-3.3873l.0699-.1739 6.9492-16.03474h1.5714v.03478zm-.1746 4.31305l-2.1651 5.07821h4.3302L45.035 8.69549z" clip-rule="evenodd"/>
  <path fill="#fff" d="M60.7144 9.11334l-.0699.03479V20.5916h3.1429v-9.2174c.4889-.1392 2.4095-.3479 3.5968-.3131h.1397V8.10465h-.1397c-3.1778-.03479-5.1333.27826-6.6698 1.00869z"/>
  <path fill="#fff" fill-rule="evenodd" d="M107.683 8.62637V4.20898h3.108V20.1742l-.105.0347c-.559.174-1.292.3131-2.165.4522s-1.816.2087-2.759.2087c-.978 0-1.886-.1739-2.689-.4522-.768-.313-1.466-.7304-2.025-1.2869-.559-.5565-.978-1.2174-1.2923-2.0174-.3143-.7652-.4539-1.6696-.4539-2.6435s.1396-1.8435.3841-2.6435c.2444-.7652.6281-1.4608 1.1171-2.01732.489-.5913 1.083-1.0087 1.781-1.32174.699-.31304 1.502-.45217 2.41-.45217.628 0 1.152.06956 1.641.20869.384.10435.733.24348 1.048.38261zm0 9.42603v-6.7478c-.245-.1391-.559-.2783-.943-.4174-.384-.1391-.838-.2087-1.292-.2087-1.013 0-1.746.3131-2.2.9739-.454.6609-.699 1.6-.699 2.7479 0 1.2174.28 2.1565.873 2.8174.559.6608 1.397 1.0086 2.41 1.0086.454 0 .838-.0347 1.152-.0695.28-.0348.524-.0696.699-.1044z" clip-rule="evenodd"/>
  <path fill="#fff" d="M85.8219 9.07804l-.0699.03478V20.5563h3.1429v-9.2174c.4889-.1391 2.4095-.3478 3.5968-.313h.1396V8.06934h-.1396c-3.2127 0-5.1333.27826-6.6698 1.0087z"/>
  <path fill="#FFB948" d="M8.28245 18.4834l-3.36643 5.4448h6.80528l3.4026-5.4448H8.28245z"/>
  <path fill="#4FABFC" d="M23.667 18.4836l-3.4026 5.4448h6.8414l3.4027-5.4448H23.667zm6.8414-.7164L19.4318 0h-6.8415l11.0766 17.7672h6.8415zM8.53613 5.80298L19.6127 23.606l3.4389-5.4806L11.9387.322388 8.53613 5.80298z"/>
  <path fill="#FFB948" d="M8.10192 6.4834L4.66309 11.964l3.61982 5.803h6.84149L8.10192 6.4834zM4.265 23.6057l3.40264-5.4806L4.265 12.6445.826172 18.1251 4.265 23.6057z"/>
</svg>
