<svg xmlns="http://www.w3.org/2000/svg" fill="none" viewBox="0 0 168 131">
  <path stroke="#2A3860" stroke-width="3" d="M52.1767 1.54201c.6427-.09536 1.1008-.01397 1.343.09536C69.1758 10.6926 83.6517 14.8985 101.243 16.2289c.591.0448.927.0994 1.176.2172.708.3356 1.213.9559 1.213 2.0761v45.5295c0 18.0032-5.9336 28.9974-15.0095 37.7223-4.5791 4.402-9.9818 8.247-15.9169 12.126-2.207 1.443-4.5012 2.899-6.8507 4.389-3.9145 2.484-7.9827 5.065-12.0575 7.846-.5755.381-1.2361.429-1.6138.301-.0841-.028-.2051-.091-.4166-.243-.0346-.025-.101-.075-.1834-.137-.1819-.137-.4416-.333-.6096-.447-3.906-2.642-7.8196-5.115-11.5951-7.5-2.4513-1.548-4.8443-3.06-7.1392-4.557-5.8862-3.841-11.2525-7.666-15.8041-12.046C7.41282 92.8213 1.5 81.8701 1.5 64.0517V18.5222c0-.717.20615-1.1653.48528-1.4698.28607-.3121.76667-.5996 1.53337-.7663C20.7052 15.0468 35.5522 10.9918 50.7345 2.15417c.6008-.34971 1.0378-.55215 1.4422-.61216z"/>
  <path fill="#2A3860" fill-rule="evenodd" d="M53.7441 16.2328c11.5597 6.6797 22.2268 9.7958 35.2024 10.8006.582.0451 1.1822.0973 1.6905.3843.8155.4603 1.363 1.285 1.363 2.474v34.1471c0 27.6281-18.3504 34.1471-37.9449 47.4952-.6134.409-1.3612.548-1.9783.42-.6088-.127-1.0818-.598-1.5976-.946C31.1712 98.0098 13 91.3016 13 64.0388V29.8917c0-1.5522.9331-2.4835 2.4882-2.7939 12.711-.9062 23.6551-3.8699 34.8382-10.3211.6197-.3574 1.2676-.7046 1.9805-.7637.549-.0454 1.0526.0279 1.4372.2198z" clip-rule="evenodd"/>
  <circle cx="52.9227" cy="47.077" r="11.077" fill="#F5F5F7"/>
  <path fill="#F5F5F7" d="M53 63.0768c-11.0457 0-20 8.0589-20 18h40c0-9.9411-8.9543-18-20-18z"/>
  <rect width="55" height="99" x="67.5" y="129.5" fill="#F5F5F7" stroke="#F5F5F7" stroke-width="3" rx="11.5" transform="rotate(-90 67.5 129.5)"/>
  <rect width="49" height="93" x="70.5" y="126.5" fill="#F5F5F7" stroke="#2C5EF6" stroke-width="3" rx="8.5" transform="rotate(-90 70.5 126.5)"/>
  <path fill="#2C5EF6" d="M125.25 98c.609 0 1.125.2344 1.594.6562.422.4688.656.9844.656 1.5938v10.5c0 .656-.234 1.172-.656 1.594-.469.468-.985.656-1.594.656h-16.5c-.656 0-1.172-.188-1.594-.656-.468-.422-.656-.938-.656-1.594v-10.5c0-.6094.188-1.125.656-1.5938.422-.4218.938-.6562 1.594-.6562h1.5v-2.25c0-1.2188.281-2.3438.891-3.375.609-1.0312 1.453-1.8281 2.484-2.4375C114.656 89.3281 115.781 89 117 89c1.219 0 2.344.3281 3.375.9375 1.031.6094 1.828 1.4531 2.437 2.4844.61 1.0312.938 2.1562.938 3.375V98h1.5zm-12.75-2.25V98h9v-2.25c0-1.2188-.469-2.2969-1.312-3.1875-.891-.8437-1.969-1.3125-3.188-1.3125-1.266 0-2.344.4688-3.188 1.3125-.89.8906-1.312 1.9687-1.312 3.1875zm12.75 15v-10.5h-16.5v10.5h16.5z"/>
  <path fill="#2C5EF6" d="M126.844 98.6562l.297-.2675-.014-.0157-.016-.0141-.267.2973zm-19.688 13.6878l.298-.268-.015-.015-.015-.015-.268.298zM110.25 98v.4h.4V98h-.4zm13.5 0h-.4v.4h.4V98zm-11.25 0h-.4v.4h.4V98zm9 0v.4h.4V98h-.4zm-1.312-5.4375l.29-.2751-.008-.0078-.007-.0075-.275.2904zm5.062 18.1875v.4h.4v-.4h-.4zm0-10.5h.4v-.4h-.4v.4zm-16.5 0v-.4h-.4v.4h.4zm0 10.5h-.4v.4h.4v-.4zm16.5-12.35c.492 0 .916.1846 1.326.5536l.535-.5947c-.527-.4748-1.135-.7589-1.861-.7589v.8zm1.296.5238c.369.41.554.8337.554 1.3262h.8c0-.7263-.284-1.3338-.759-1.8613l-.595.5351zm.554 1.3262v10.5h.8v-10.5h-.8zm0 10.5c0 .546-.189.961-.539 1.311l.566.566c.494-.494.773-1.111.773-1.877h-.8zm-.539 1.311c-.389.389-.801.539-1.311.539v.8c.708 0 1.328-.225 1.877-.773l-.566-.566zm-1.311.539h-16.5v.8h16.5v-.8zm-16.5 0c-.566 0-.965-.155-1.296-.524l-.595.535c.512.569 1.145.789 1.891.789v-.8zm-1.326-.554c-.369-.331-.524-.73-.524-1.296h-.8c0 .746.22 1.379.789 1.891l.535-.595zm-.524-1.296v-10.5h-.8v10.5h.8zm0-10.5c0-.5104.15-.9221.539-1.3109l-.566-.5657c-.548.5487-.773 1.1683-.773 1.8766h.8zm.539-1.3109c.35-.3497.765-.5391 1.311-.5391v-.8c-.766 0-1.383.2793-1.877.7734l.566.5657zm1.311-.5391h1.5v-.8h-1.5v.8zm1.9-.4v-2.25h-.8V98h.8zm0-2.25c0-1.154.265-2.2075.835-3.1715l-.689-.407c-.649 1.0985-.946 2.295-.946 3.5785h.8zm.835-3.1715c.571-.9666 1.363-1.7175 2.343-2.2966l-.406-.6888c-1.083.6396-1.978 1.4825-2.626 2.5784l.689.407zm2.343-2.2966c.974-.5751 2.029-.8819 3.172-.8819v-.8c-1.294 0-2.489.3494-3.578.9931l.406.6888zM117 89.4c1.143 0 2.198.3068 3.172.8819l.406-.6888c-1.089-.6437-2.284-.9931-3.578-.9931v.8zm3.172.8819c.966.5711 1.717 1.3633 2.296 2.3435l.689-.407c-.64-1.0824-1.483-1.9777-2.579-2.6253l-.406.6888zm2.296 2.3435c.575.9731.882 2.0283.882 3.1715h.8c0-1.2944-.349-2.4892-.993-3.5785l-.689.407zm.882 3.1715V98h.8v-2.2031h-.8zm.4 2.6031h1.5v-.8h-1.5v.8zm-11.65-2.65V98h.8v-2.25h-.8zm.4 2.65h9v-.8h-9v.8zm9.4-.4v-2.25h-.8V98h.8zm0-2.25c0-1.3303-.515-2.5046-1.422-3.4626l-.581.5502c.78.8233 1.203 1.8052 1.203 2.9124h.8zm-1.437-3.4779c-.958-.9075-2.133-1.4221-3.463-1.4221v.8c1.107 0 2.089.4229 2.912 1.2029l.551-.5808zM117 90.85c-1.373 0-2.553.5121-3.47 1.4297l.565.5656c.77-.7699 1.747-1.1953 2.905-1.1953v-.8zm-3.47 1.4297c-.969.9682-1.43 2.1493-1.43 3.4703h.8c0-1.1165.382-2.0917 1.195-2.9047l-.565-.5656zm12.12 18.4703v-10.5h-.8v10.5h.8zm-.4-10.9h-16.5v.8h16.5v-.8zm-16.9.4v10.5h.8v-10.5h-.8zm.4 10.9h16.5v-.8h-16.5v.8z"/>
  <path stroke="#2C5EF6" stroke-linecap="round" stroke-width="3" d="M77.5 108.5v-13"/>
</svg>
