<svg xmlns="http://www.w3.org/2000/svg" fill="none" viewBox="0 0 216 137">
  <path stroke="#2A3860" stroke-linecap="round" stroke-linejoin="round" stroke-width="3" d="M124.499 115.5s-9.499 5 5 12.5c12 5.5 49 11.5 77 0 5-2.167 12-7.5 5-12.5"/>
  <path stroke="#2C5EF6" stroke-linecap="round" stroke-linejoin="round" stroke-width="3" d="M124.499 99s-9.499 5 5 12.5c12 5.5 49 11.5 77 0 5-2.167 12-7.5 5-12.5"/>
  <path stroke="#2A3860" stroke-width="3" d="M214.5 88c0 1.5525-.943 3.2703-3.201 5.0498-2.241 1.7662-5.576 3.4223-9.832 4.8409C192.971 100.723 181.138 102.5 168 102.5c-13.138 0-24.971-1.777-33.467-4.6093-4.256-1.4186-7.591-3.0747-9.832-4.8409-2.258-1.7795-3.201-3.4973-3.201-5.0498 0-1.5525.943-3.2703 3.201-5.0498 2.241-1.7662 5.576-3.4223 9.832-4.8409C143.029 75.2773 154.862 73.5 168 73.5c13.138 0 24.971 1.7773 33.467 4.6093 4.256 1.4186 7.591 3.0747 9.832 4.8409 2.258 1.7795 3.201 3.4973 3.201 5.0498z"/>
  <path stroke="#2C5EF6" stroke-linecap="round" stroke-width="3" d="M136.5 93.5s29-9 63 0"/>
  <rect width="93" height="61" x="1.5" y="1.5" stroke="#2A3860" stroke-width="3" rx="8.5"/>
  <path stroke="#2A3860" stroke-linecap="round" stroke-width="3" d="M8.5 17.5h79"/>
  <circle cx="9.5" cy="9.5" r="2.5" fill="#2A3860"/>
  <circle cx="16.5" cy="9.5" r="2.5" fill="#2A3860"/>
  <circle cx="23.5" cy="9.5" r="2.5" fill="#2A3860"/>
  <path fill="#F5F5F7" stroke="#2C5EF6" stroke-width="3" d="M11.5 46c0-1.3807 1.1193-2.5 2.5-2.5h34c1.3807 0 2.5 1.1193 2.5 2.5v4c0 1.3807-1.1193 2.5-2.5 2.5H14c-1.3807 0-2.5-1.1193-2.5-2.5v-4z"/>
  <rect width="30" height="3" x="10" y="27" fill="#2C5EF6" rx="1.5"/>
  <rect width="21" height="3" x="43" y="27" fill="#2C5EF6" rx="1.5"/>
  <rect width="76" height="3" x="10" y="34" fill="#2C5EF6" rx="1.5"/>
  <path fill="#C5C5CF" d="M100 99.1296l-11.0062-3.4925 2.4786 11.2779L100 99.1296zM43.1207 82.4763c2.7468 5.0709 7.5698 11.1675 15.357 15.3952 7.7994 4.2345 18.4935 6.5505 32.896 4.1765l-.3253-1.974c-14.0185 2.311-24.2538.037-31.6165-3.9602-7.375-4.0039-11.9471-9.7801-14.5526-14.5901l-1.7586.9526zM116 34.8704l11.006 3.4925-2.478-11.2779L116 34.8704zm56.879 16.6533c-2.747-5.0709-7.569-11.1675-15.357-15.3952-7.799-4.2343-18.493-6.5502-32.896-4.1763l.326 1.9734c14.018-2.3107 24.253-.0366 31.616 3.9606 7.375 4.0039 11.947 9.7801 14.553 14.5901l1.758-.9526z"/>
</svg>
