<svg xmlns="http://www.w3.org/2000/svg" fill="none" viewBox="0 0 232 145">
  <mask id="a" width="232" height="139" x="0" y="0" maskUnits="userSpaceOnUse">
    <path fill="#F5F5F7" d="M0 20C0 8.95431 8.95431 0 20 0h192c11.046 0 20 8.95431 20 20v99c0 11.046-8.954 20-20 20H20c-11.04569 0-20-8.954-20-20V20z"/>
  </mask>
  <g mask="url(#a)">
    <circle cx="105" cy="124" r="26.5" stroke="#2A3860" stroke-width="3"/>
    <path fill="#2A3860" fill-rule="evenodd" d="M109.32 118.266c.164.109.383.164.602.164.219 0 .383-.055.547-.274l1.257-1.258c.165-.164.219-.382.219-.656 0-.219-.109-.437-.328-.656-1.422-1.039-2.953-1.586-4.703-1.586h-.164v-2.625c0-.219-.109-.437-.274-.602-.164-.164-.382-.273-.601-.273h-1.75c-.274 0-.492.109-.656.273-.164.165-.219.383-.219.602V114h-.109c-1.422 0-2.625.438-3.7192 1.203-1.0937.82-1.8047 1.859-2.1328 3.172-.3828 1.531-.1641 2.953.6016 4.266.7656 1.312 1.914 2.187 3.3904 2.625l6.344 1.804c.437.164.82.383 1.148.711.328.328.493.711.547 1.149.11.656-.054 1.258-.492 1.804-.437.547-1.039.766-1.695.766h-4.047c-.875 0-1.695-.219-2.406-.766-.219-.109-.383-.164-.602-.164-.2187 0-.4374.11-.5468.274l-1.2578 1.203c-.2188.219-.2735.492-.2735.711 0 .273.1641.492.3828.656 1.3672 1.094 2.9533 1.586 4.7033 1.586h.164v2.625c0 .273.055.492.219.656.164.164.382.219.656.219h1.75c.219 0 .437-.055.601-.219.165-.164.274-.383.274-.656V135h.164c1.312 0 2.57-.383 3.664-1.203 1.094-.766 1.805-1.859 2.133-3.172.328-1.477.109-2.898-.656-4.211-.766-1.312-1.914-2.242-3.336-2.68l-6.344-1.804c-.492-.11-.875-.383-1.203-.711-.328-.328-.492-.711-.492-1.149-.11-.656.054-1.203.492-1.75.437-.547.984-.82 1.695-.82h4.047c.875 0 1.641.273 2.406.766z" clip-rule="evenodd"/>
    <circle cx="127" cy="106" r="7.5" fill="#2C5EF6" stroke="#F5F5F7" stroke-width="3"/>
    <circle cx="44" cy="64" r="26.5" stroke="#2A3860" stroke-width="3"/>
    <path fill="#2A3860" fill-rule="evenodd" d="M48.3202 58.2656c.1641.1094.3829.1641.6016.1641.2188 0 .3828-.0547.5469-.2735l1.2578-1.2578c.1641-.164.2187-.3828.2187-.6562 0-.2188-.1093-.4375-.3281-.6563C49.1952 54.5469 47.664 54 45.914 54h-.1641v-2.625c0-.2188-.1093-.4375-.2734-.6016-.1641-.164-.3828-.2734-.6016-.2734h-1.75c-.2734 0-.4922.1094-.6562.2734-.1641.1641-.2188.3828-.2188.6016V54h-.1093c-1.4219 0-2.625.4375-3.7188 1.2031-1.0937.8203-1.8047 1.8594-2.1328 3.1719-.3828 1.5312-.1641 2.9531.6016 4.2656.7656 1.3125 1.914 2.1875 3.3906 2.625l6.3437 1.8047c.4375.1641.8203.3828 1.1485.7109.3281.3282.4922.711.5468 1.1485.1094.6562-.0546 1.2578-.4921 1.8047-.4375.5468-1.0391.7656-1.6954.7656h-4.0468c-.875 0-1.6953-.2188-2.4063-.7656-.2187-.1094-.3828-.1641-.6015-.1641-.2188 0-.4375.1094-.5469.2735l-1.2578 1.2031c-.2188.2187-.2735.4922-.2735.7109 0 .2734.1641.4922.3828.6563C38.7499 74.5078 40.3359 75 42.0859 75h.164v2.625c0 .2734.0547.4922.2188.6562.164.1641.3828.2188.6562.2188h1.75c.2188 0 .4375-.0547.6016-.2188.1641-.164.2734-.3828.2734-.6562V75h.1641c1.3125 0 2.5703-.3828 3.6641-1.2031 1.0937-.7657 1.8046-1.8594 2.1328-3.1719.3281-1.4766.1093-2.8984-.6563-4.2109-.7656-1.3125-1.914-2.2422-3.3359-2.6797l-6.3438-1.8047c-.4922-.1094-.875-.3828-1.2031-.7109-.3281-.3282-.4922-.711-.4922-1.1485-.1094-.6562.0547-1.2031.4922-1.75.4375-.5469.9844-.8203 1.6953-.8203h4.0469c.875 0 1.6406.2734 2.4062.7656z" clip-rule="evenodd"/>
    <circle cx="66" cy="46" r="7.5" fill="#F5F5F7" stroke="#F5F5F7" stroke-width="3"/>
    <circle cx="66" cy="46" r="4.5" fill="#F5F5F7" stroke="#2A3860" stroke-width="3"/>
    <circle cx="127" cy="29" r="26.5" stroke="#2A3860" stroke-width="3"/>
    <path fill="#2A3860" fill-rule="evenodd" d="M131.32 23.2656c.164.1094.383.1641.602.1641.219 0 .383-.0547.547-.2735l1.257-1.2578c.165-.164.219-.3828.219-.6562 0-.2188-.109-.4375-.328-.6563-1.422-1.039-2.953-1.5859-4.703-1.5859h-.164v-2.625c0-.2188-.109-.4375-.274-.6016-.164-.164-.382-.2734-.601-.2734h-1.75c-.274 0-.492.1094-.656.2734-.164.1641-.219.3828-.219.6016V19h-.109c-1.422 0-2.625.4375-3.719 1.2031-1.094.8203-1.805 1.8594-2.133 3.1719-.383 1.5312-.164 2.9531.602 4.2656.765 1.3125 1.914 2.1875 3.39 2.625l6.344 1.8047c.437.1641.82.3828 1.148.7109.328.3282.493.711.547 1.1485.11.6562-.054 1.2578-.492 1.8047-.437.5468-1.039.7656-1.695.7656h-4.047c-.875 0-1.695-.2188-2.406-.7656-.219-.1094-.383-.1641-.602-.1641-.219 0-.437.1094-.547.2735l-1.258 1.2031c-.218.2187-.273.4922-.273.7109 0 .2734.164.4922.383.6563C121.75 39.5078 123.336 40 125.086 40h.164v2.625c0 .2734.055.4922.219.6562.164.1641.382.2188.656.2188h1.75c.219 0 .437-.0547.601-.2188.165-.164.274-.3828.274-.6562V40h.164c1.312 0 2.57-.3828 3.664-1.2031 1.094-.7657 1.805-1.8594 2.133-3.1719.328-1.4766.109-2.8984-.656-4.2109-.766-1.3125-1.914-2.2422-3.336-2.6797l-6.344-1.8047c-.492-.1094-.875-.3828-1.203-.7109-.328-.3282-.492-.711-.492-1.1485-.11-.6562.054-1.2031.492-1.75.437-.5469.984-.8203 1.695-.8203h4.047c.875 0 1.641.2734 2.406.7656z" clip-rule="evenodd"/>
    <circle cx="149" cy="11" r="7.5" fill="#F5F5F7" stroke="#F5F5F7" stroke-width="3"/>
    <circle cx="149" cy="11" r="4.5" fill="#F5F5F7" stroke="#2A3860" stroke-width="3"/>
    <circle cx="188" cy="87" r="26.5" stroke="#2A3860" stroke-width="3"/>
    <path fill="#2A3860" fill-rule="evenodd" d="M192.32 81.2656c.164.1094.383.1641.602.1641.219 0 .383-.0547.547-.2735l1.257-1.2578c.165-.164.219-.3828.219-.6562 0-.2188-.109-.4375-.328-.6563-1.422-1.039-2.953-1.5859-4.703-1.5859h-.164v-2.625c0-.2188-.109-.4375-.274-.6016-.164-.164-.382-.2734-.601-.2734h-1.75c-.274 0-.492.1094-.656.2734-.164.1641-.219.3828-.219.6016V77h-.109c-1.422 0-2.625.4375-3.719 1.2031-1.094.8203-1.805 1.8594-2.133 3.1719-.383 1.5312-.164 2.9531.602 4.2656.765 1.3125 1.914 2.1875 3.39 2.625l6.344 1.8047c.437.1641.82.3828 1.148.7109.328.3282.493.711.547 1.1485.11.6562-.054 1.2578-.492 1.8047-.437.5468-1.039.7656-1.695.7656h-4.047c-.875 0-1.695-.2188-2.406-.7656-.219-.1094-.383-.1641-.602-.1641-.219 0-.437.1094-.547.2735l-1.258 1.2031c-.218.2187-.273.4922-.273.7109 0 .2734.164.4922.383.6563C182.75 97.5078 184.336 98 186.086 98h.164v2.625c0 .273.055.492.219.656.164.164.382.219.656.219h1.75c.219 0 .437-.055.601-.219.165-.164.274-.383.274-.656V98h.164c1.312 0 2.57-.3828 3.664-1.2031 1.094-.7657 1.805-1.8594 2.133-3.1719.328-1.4766.109-2.8984-.656-4.2109-.766-1.3125-1.914-2.2422-3.336-2.6797l-6.344-1.8047c-.492-.1094-.875-.3828-1.203-.7109-.328-.3282-.492-.711-.492-1.1485-.11-.6562.054-1.2031.492-1.75.437-.5469.984-.8203 1.695-.8203h4.047c.875 0 1.641.2734 2.406.7656z" clip-rule="evenodd"/>
    <circle cx="210" cy="69" r="7.5" fill="#F5F5F7" stroke="#F5F5F7" stroke-width="3"/>
    <circle cx="210" cy="69" r="4.5" fill="#F5F5F7" stroke="#2A3860" stroke-width="3"/>
  </g>
  <path stroke="#2C5EF6" stroke-linecap="round" stroke-width="3" d="M229 128.636s-104.032 32.319-226 0"/>
</svg>
