<?xml version="1.0" standalone="no"?>
<!DOCTYPE svg PUBLIC "-//W3C//DTD SVG 20010904//EN"
 "http://www.w3.org/TR/2001/REC-SVG-20010904/DTD/svg10.dtd">
<svg version="1.0" xmlns="http://www.w3.org/2000/svg"
 width="700.000000pt" height="700.000000pt" viewBox="0 0 700.000000 700.000000"
 preserveAspectRatio="xMidYMid meet">
<metadata>
Created by potrace 1.11, written by Peter Selinger 2001-2013
</metadata>
<g transform="translate(0.000000,700.000000) scale(0.100000,-0.100000)"
fill="#000000" stroke="none">
<path d="M0 4330 l0 -1790 23 12 c12 7 29 18 37 24 8 6 35 23 60 36 25 14 203
116 395 228 617 358 988 572 1070 619 44 24 82 46 85 49 3 2 5 379 5 838 0
731 -2 837 -15 848 -8 7 -44 29 -80 48 -63 34 -83 45 -240 133 -41 23 -95 53
-120 67 -25 14 -97 55 -160 90 -189 106 -210 118 -345 193 -71 40 -148 83
-170 95 -22 13 -60 34 -85 48 -25 14 -136 76 -247 139 -112 62 -205 113 -208
113 -3 0 -5 -806 -5 -1790z"/>
<path d="M6895 6034 c-104 -58 -198 -109 -300 -164 -33 -18 -69 -38 -80 -45
-11 -6 -56 -31 -100 -55 -44 -24 -94 -51 -112 -61 -18 -10 -63 -35 -100 -55
-37 -20 -94 -52 -126 -70 -32 -19 -60 -34 -61 -34 -2 0 -55 -29 -117 -63 -63
-35 -139 -77 -169 -94 -30 -17 -75 -41 -100 -55 -25 -14 -101 -55 -170 -93
-69 -38 -127 -70 -130 -72 -6 -5 -8 -1643 -2 -1660 2 -7 8 -13 13 -13 4 0 49
-25 100 -55 50 -30 93 -55 95 -55 3 0 21 -11 42 -23 20 -13 57 -35 82 -49 25
-14 171 -99 325 -188 154 -90 295 -171 313 -181 17 -11 47 -27 65 -38 17 -10
66 -38 107 -63 41 -24 82 -47 90 -51 8 -4 29 -15 45 -26 28 -17 106 -63 308
-179 l87 -51 0 1774 c0 976 -1 1775 -2 1775 -2 0 -48 -25 -103 -56z"/>
<path d="M3400 6018 c-47 -27 -103 -60 -125 -73 -22 -12 -139 -80 -260 -150
-121 -70 -238 -137 -260 -150 -22 -12 -139 -80 -260 -150 -121 -70 -237 -136
-257 -147 -35 -19 -50 -38 -29 -38 5 0 49 -23 98 -51 48 -28 113 -65 143 -82
30 -16 242 -136 470 -265 228 -129 440 -248 470 -265 30 -16 64 -36 75 -43 11
-8 26 -14 33 -14 12 0 125 60 427 225 22 12 121 66 220 120 99 53 198 107 220
120 22 12 134 73 248 135 114 62 204 116 200 120 -23 21 -1303 760 -1315 759
-7 0 -51 -23 -98 -51z"/>
<path d="M2010 4248 l0 -754 158 -91 c86 -50 382 -222 656 -382 275 -160 501
-289 504 -287 7 8 2 1530 -5 1537 -5 4 -39 24 -78 45 -38 20 -87 47 -107 58
-20 12 -94 53 -165 92 -212 118 -543 302 -608 339 -22 12 -58 32 -80 45 -22
13 -58 33 -80 45 -22 11 -75 40 -117 64 l-78 43 0 -754z"/>
<path d="M4935 4956 c-99 -55 -475 -260 -595 -324 -36 -19 -114 -62 -175 -95
-60 -33 -135 -73 -165 -90 -30 -16 -73 -40 -95 -52 -22 -12 -84 -45 -137 -74
-54 -29 -98 -58 -98 -64 -3 -70 0 -1520 3 -1523 4 -4 77 38 407 231 14 8 224
130 468 272 l442 258 0 742 c0 409 -3 743 -7 742 -5 0 -26 -10 -48 -23z"/>
<path d="M1435 2923 c-242 -140 -447 -257 -455 -260 -8 -4 -33 -18 -55 -31
-22 -14 -65 -39 -95 -55 -30 -17 -66 -38 -79 -49 -13 -10 -27 -18 -31 -18 -4
0 -74 -39 -156 -86 -82 -48 -165 -96 -184 -107 -140 -79 -190 -110 -187 -114
10 -10 230 -133 238 -133 5 0 9 -4 9 -10 0 -5 4 -10 9 -10 5 0 139 -75 298
-166 359 -207 337 -194 408 -234 33 -18 67 -39 76 -46 8 -8 19 -14 23 -14 4 0
46 -23 94 -51 48 -29 107 -63 132 -77 25 -14 128 -73 230 -132 102 -59 205
-118 230 -132 25 -14 117 -67 205 -118 88 -51 185 -107 216 -124 49 -27 514
-295 588 -338 101 -58 381 -218 383 -218 2 0 3 435 3 967 0 852 -2 969 -15
979 -17 13 -402 235 -470 272 -25 13 -49 27 -55 32 -5 4 -30 19 -55 32 -25 14
-227 130 -450 258 -223 128 -407 233 -410 235 -3 1 -203 -112 -445 -252z"/>
<path d="M4915 3058 c-104 -60 -208 -120 -230 -133 -22 -12 -186 -107 -365
-210 -382 -220 -372 -214 -522 -299 -65 -37 -120 -71 -123 -77 -7 -10 -9
-1928 -3 -1934 2 -2 66 33 143 77 77 44 155 89 172 99 49 28 894 513 1151 661
122 70 242 138 265 152 23 13 98 56 165 95 68 39 126 71 130 71 3 0 13 6 21
14 9 7 41 27 71 43 30 17 122 69 204 117 82 47 151 86 153 86 2 0 29 16 59 35
30 19 57 35 59 35 3 0 22 10 43 23 20 13 62 37 92 54 30 17 122 69 204 117 82
47 151 86 153 86 3 0 16 9 29 19 l25 20 -68 39 c-37 22 -171 98 -298 171 -126
72 -237 135 -245 140 -12 8 -411 237 -575 331 -16 10 -133 76 -259 149 -125
72 -236 131 -245 130 -9 0 -101 -50 -206 -111z"/>
</g>
</svg>
