<svg xmlns="http://www.w3.org/2000/svg" fill="none" viewBox="0 0 343 592">
  <rect width="340" height="219" x="1.5" y="1.5" fill="#fff" stroke="#2A3860" stroke-width="3" rx="18.5"/>
  <path fill="#2A3860" d="M171.293 302.707c.39.391 1.024.391 1.414 0l6.364-6.364c.391-.39.391-1.024 0-1.414-.39-.391-1.024-.391-1.414 0L172 300.586l-5.657-5.657c-.39-.391-1.024-.391-1.414 0-.391.39-.391 1.024 0 1.414l6.364 6.364zM171 222v32.127h2V222h-2zm0 32.127V302h2v-47.873h-2z"/>
  <rect width="184" height="30" x="80" y="245" fill="#F5F5F7" stroke="#2A3860" stroke-width="2" rx="15"/>
  <path fill="#171717" d="M93.127 263.079c.6328 0 1.1425-.268 1.3798-.725h.1055V263h1.1426v-3.287c0-1.059-.6987-1.652-1.9424-1.652-1.1514 0-1.9468.566-2.0347 1.445h1.169c.1011-.303.4131-.487.8305-.487.4966 0 .7867.246.7867.668v.386l-1.1338.071c-1.1953.083-1.8325.597-1.8325 1.472 0 .874.6152 1.463 1.5293 1.463zm.413-.962c-.4658 0-.7558-.229-.7558-.589 0-.374.2856-.589.8481-.624l.9317-.057v.351c0 .541-.4263.919-1.024.919zm7.963-3.964h-1.2v2.804c0 .668-.3997 1.094-1.0149 1.094-.6109 0-.8965-.339-.8965-1.051v-2.847h-1.2041v3.138c0 1.182.5625 1.814 1.6172 1.814.6987 0 1.2213-.334 1.4593-.918h.074V263h1.165v-4.847zm2.87 4.922c.711 0 1.19-.321 1.357-.91h.093V263h1.239v-6.693h-1.257v2.672h-.088c-.162-.58-.646-.905-1.344-.905-1.108 0-1.767.764-1.767 2.083v.835c0 1.318.659 2.083 1.767 2.083zm.465-1.042c-.624 0-1.006-.408-1.006-1.076v-.8c0-.668.382-1.073 1.006-1.073.62 0 .998.405.998 1.073v.8c0 .668-.378 1.076-.998 1.076zm5.704-4.869c.493 0 .827-.303.827-.76s-.334-.76-.827-.76c-.492 0-.821.303-.821.76s.329.76.821.76zm2.07 5.836v-.958h-1.463v-3.889h-2.646v.962h1.477v2.927h-1.556V263h4.188zm4.474-1.362c-.088.316-.47.536-.954.536-.628 0-1.037-.413-1.037-1.046v-.264h3.125v-.668c0-1.3-.822-2.144-2.105-2.144-1.319 0-2.198.839-2.198 2.109v.778c0 1.375.809 2.166 2.22 2.166 1.125 0 1.982-.61 2.083-1.467h-1.134zm-.993-2.655c.606 0 .967.418.967 1.112h-1.965c0-.694.374-1.112.998-1.112zm3.348 4.017h1.2v-2.799c0-.673.4-1.099 1.015-1.099.611 0 .897.338.897 1.05V263h1.204v-3.133c0-1.182-.563-1.815-1.617-1.815-.699 0-1.222.329-1.459.914h-.075v-.813h-1.165V263zm9.914-3.155c-.114-1.187-.843-1.811-2.096-1.811-1.428 0-2.219.809-2.219 2.281v.51c0 1.472.791 2.28 2.219 2.28 1.253 0 1.991-.615 2.096-1.771h-1.177c-.084.519-.4.77-.928.77-.646 0-1.001-.484-1.001-1.372v-.325c0-.887.355-1.371 1.001-1.371.523 0 .849.264.928.809h1.177zm4.421 1.793c-.088.316-.47.536-.953.536-.629 0-1.037-.413-1.037-1.046v-.264h3.124v-.668c0-1.3-.822-2.144-2.105-2.144-1.318 0-2.197.839-2.197 2.109v.778c0 1.375.809 2.166 2.219 2.166 1.125 0 1.982-.61 2.083-1.467h-1.134zm-.993-2.655c.607 0 .967.418.967 1.112h-1.964c0-.694.373-1.112.997-1.112zm5.507.774c.531 0 .966-.448.966-.993 0-.545-.435-.989-.966-.989-.532 0-.967.444-.967.989 0 .545.435.993.967.993zm0 3.326c.531 0 .966-.448.966-.988 0-.55-.435-.993-.966-.993-.532 0-.967.443-.967.993 0 .54.435.988.967.988zm12.054-6.424l-.752 3.041h1.266l.444-3.041h-.958zm-2.004 0l-.752 3.041h1.262l.448-3.041h-.958zm8.578 6.341v-1.072h-1.314v-4.197h1.314v-1.072h-3.876v1.072h1.314v4.197h-1.314V263h3.876zm1.468 0h1.199v-2.799c0-.673.4-1.099 1.016-1.099.61 0 .896.338.896 1.05V263h1.204v-3.133c0-1.182-.562-1.815-1.617-1.815-.699 0-1.222.329-1.459.914h-.075v-.813h-1.164V263zm6.719-6.231v1.432h-1.261v.963h1.261v2.302c0 1.125.505 1.543 1.824 1.543.096 0 1.054-.009 1.103-.018v-.949c-.053.004-.892.009-1.007.009-.461 0-.72-.207-.72-.572v-2.315h1.784v-.963h-1.806v-1.432h-1.178zm7.616 4.869c-.088.316-.471.536-.954.536-.628 0-1.037-.413-1.037-1.046v-.264h3.124v-.668c0-1.3-.821-2.144-2.104-2.144-1.319 0-2.198.839-2.198 2.109v.778c0 1.375.809 2.166 2.219 2.166 1.125 0 1.982-.61 2.083-1.467h-1.133zm-.993-2.655c.606 0 .966.418.966 1.112h-1.964c0-.694.374-1.112.998-1.112zm5.414 1.868c0-1.041.558-1.56 1.7-1.56.273 0 .589.057.809.141v-1.306c-.172-.065-.418-.101-.69-.101-.914 0-1.411.409-1.622 1.371h-.189v-1.243h-2.171v.888h1.011v3.076h-.923V263h3.481v-.883h-1.406v-1.266zm6.706.787c-.088.316-.471.536-.954.536-.628 0-1.037-.413-1.037-1.046v-.264h3.124v-.668c0-1.3-.821-2.144-2.105-2.144-1.318 0-2.197.839-2.197 2.109v.778c0 1.375.809 2.166 2.219 2.166 1.125 0 1.982-.61 2.083-1.467h-1.133zm-.994-2.655c.607 0 .967.418.967 1.112h-1.964c0-.694.373-1.112.997-1.112zm3.547.585c0 .747.461 1.222 1.371 1.419l.725.154c.51.11.694.242.694.514 0 .317-.316.523-.808.523-.501 0-.826-.184-.901-.518h-1.187c.066.909.831 1.441 2.07 1.441 1.261 0 2.061-.62 2.061-1.6 0-.738-.435-1.155-1.415-1.357l-.751-.154c-.47-.097-.673-.255-.673-.519 0-.307.304-.514.761-.514.448 0 .764.198.821.519h1.134c-.057-.91-.773-1.437-1.947-1.437-1.199 0-1.955.588-1.955 1.529zm6.521-2.799v1.432h-1.261v.963h1.261v2.302c0 1.125.506 1.543 1.824 1.543.097 0 1.055-.009 1.103-.018v-.949c-.053.004-.892.009-1.006.009-.462 0-.721-.207-.721-.572v-2.315h1.784v-.963H194.1v-1.432h-1.178zm12.727 8.354v-9.431h-1.195v9.431h1.195zM216.802 263v-5.265h1.815v-1.076h-4.878v1.076h1.815V263h1.248zm4.847-2.149c0-1.041.559-1.56 1.701-1.56.273 0 .589.057.809.141v-1.306c-.172-.065-.418-.101-.69-.101-.914 0-1.411.409-1.622 1.371h-.189v-1.243h-2.171v.888h1.011v3.076h-.923V263h3.481v-.883h-1.407v-1.266zm5.001 2.228c.633 0 1.143-.268 1.38-.725h.106V263h1.142v-3.287c0-1.059-.698-1.652-1.942-1.652-1.151 0-1.947.566-2.035 1.445h1.169c.101-.303.413-.487.831-.487.496 0 .786.246.786.668v.386l-1.133.071c-1.196.083-1.833.597-1.833 1.472 0 .874.615 1.463 1.529 1.463zm.413-.962c-.465 0-.755-.229-.755-.589 0-.374.285-.589.848-.624l.931-.057v.351c0 .541-.426.919-1.024.919zm3.437-3.964l1.688 4.847h1.371l1.678-4.847h-1.27l-1.046 3.674h-.07l-1.059-3.674H230.5zm8.982 3.485c-.087.316-.47.536-.953.536-.629 0-1.037-.413-1.037-1.046v-.264h3.124v-.668c0-1.3-.822-2.144-2.105-2.144-1.318 0-2.197.839-2.197 2.109v.778c0 1.375.809 2.166 2.219 2.166 1.125 0 1.982-.61 2.083-1.467h-1.134zm-.993-2.655c.607 0 .967.418.967 1.112h-1.964c0-.694.373-1.112.997-1.112zm7.647 4.017v-.958h-1.446v-5.735h-2.663v.958h1.459v4.777h-1.538V263h4.188zm2.483-3.476l.751-3.041h-1.266l-.448 3.041h.963zm2.004 0l.751-3.041h-1.266l-.448 3.041h.963z"/>
  <path fill="#fff" stroke="#2C5EF6" stroke-width="3" d="M33.5 328c0-4.694 3.8056-8.5 8.5-8.5h259c4.694 0 8.5 3.806 8.5 8.5v68c0 4.694-3.806 8.5-8.5 8.5H42c-4.6944 0-8.5-3.806-8.5-8.5v-68z"/>
  <path fill="#2A3860" d="M154.589 354.458c.105 2.32 2.048 3.753 4.983 3.753 3.05 0 4.957-1.529 4.957-3.955 0-1.881-1.116-2.953-3.788-3.507l-1.371-.281c-1.582-.334-2.215-.888-2.215-1.749 0-1.064 1.002-1.732 2.408-1.732 1.451 0 2.453.721 2.558 1.916h2.171c-.053-2.267-1.907-3.797-4.711-3.797-2.751 0-4.711 1.512-4.711 3.745 0 1.854 1.187 3.049 3.727 3.568l1.362.281c1.652.343 2.285.905 2.285 1.82 0 1.054-1.063 1.81-2.593 1.81-1.582 0-2.724-.703-2.891-1.872h-2.171zm12.109 0c.106 2.32 2.048 3.753 4.984 3.753 3.049 0 4.957-1.529 4.957-3.955 0-1.881-1.117-2.953-3.788-3.507l-1.372-.281c-1.582-.334-2.214-.888-2.214-1.749 0-1.064 1.002-1.732 2.408-1.732 1.45 0 2.452.721 2.557 1.916h2.171c-.052-2.267-1.907-3.797-4.711-3.797-2.751 0-4.711 1.512-4.711 3.745 0 1.854 1.187 3.049 3.727 3.568l1.362.281c1.653.343 2.286.905 2.286 1.82 0 1.054-1.064 1.81-2.593 1.81-1.582 0-2.725-.703-2.892-1.872h-2.171zm12.637-9.141V358h2.268v-4.192h2.566c2.566 0 4.368-1.714 4.368-4.246 0-2.531-1.749-4.245-4.271-4.245h-4.931zm2.268 1.855h2.065c1.626 0 2.566.87 2.566 2.39 0 1.539-.949 2.417-2.575 2.417h-2.056v-4.807z"/>
  <path fill="#505050" d="M110.479 375.354c.116 1.703 1.551 2.81 3.705 2.81 2.208 0 3.643-1.142 3.643-2.967 0-1.394-.813-2.215-2.871-2.666l-1.094-.239c-1.346-.294-1.873-.827-1.873-1.606 0-1.005.95-1.607 2.181-1.607 1.285 0 2.14.663 2.249 1.743h1.23c-.054-1.675-1.476-2.85-3.445-2.85-2.044 0-3.479 1.141-3.479 2.768 0 1.402.854 2.297 2.83 2.728l1.093.239c1.368.301 1.914.848 1.914 1.675 0 .971-.97 1.675-2.31 1.675-1.415 0-2.399-.643-2.543-1.703h-1.23zm14.444-4.463h-1.19v4.176c0 1.21-.697 2.003-1.852 2.003-1.101 0-1.641-.622-1.641-1.777v-4.402h-1.189v4.614c0 1.613.909 2.618 2.461 2.618 1.093 0 1.832-.458 2.256-1.278h.027V378h1.128v-7.109zm4.997-.123c-1.032 0-1.859.526-2.297 1.326h-.027v-1.203h-1.128v9.481h1.189v-3.527h.028c.423.779 1.244 1.278 2.262 1.278 1.791 0 3.015-1.449 3.015-3.678 0-2.228-1.231-3.677-3.042-3.677zm-.232 6.309c-1.217 0-2.038-1.046-2.038-2.632 0-1.579.821-2.632 2.038-2.632 1.264 0 2.057 1.026 2.057 2.632 0 1.614-.793 2.632-2.057 2.632zm7.929-6.309c-1.032 0-1.859.526-2.297 1.326h-.027v-1.203h-1.128v9.481h1.189v-3.527h.028c.424.779 1.244 1.278 2.263 1.278 1.791 0 3.014-1.449 3.014-3.678 0-2.228-1.23-3.677-3.042-3.677zm-.232 6.309c-1.217 0-2.037-1.046-2.037-2.632 0-1.579.82-2.632 2.037-2.632 1.264 0 2.057 1.026 2.057 2.632 0 1.614-.793 2.632-2.057 2.632zm4.539.923h1.189v-9.864h-1.189V378zm3.39 2.659c1.286 0 1.874-.499 2.482-2.16l2.796-7.608h-1.251l-1.969 5.92h-.02l-1.969-5.92h-1.272l2.625 7.116-.164.499c-.273.827-.642 1.148-1.305 1.148-.151 0-.335-.007-.465-.034v.998c.13.028.369.041.512.041zm10.685-6.104v-1.108h-4.484v1.108h4.484zm1.408-1.702c0 1.025.65 1.647 1.989 1.968l1.128.274c.814.198 1.094.492 1.094 1.005 0 .642-.595 1.052-1.558 1.052-.964 0-1.511-.389-1.655-1.203h-1.189c.137 1.333 1.176 2.174 2.844 2.174 1.586 0 2.754-.875 2.754-2.112 0-1.019-.519-1.579-1.955-1.928l-1.128-.273c-.793-.192-1.155-.527-1.155-1.019 0-.622.574-1.053 1.443-1.053.875 0 1.421.458 1.51 1.203h1.135c-.048-1.257-1.087-2.173-2.645-2.173-1.539 0-2.612.868-2.612 2.085zm7.301-3.227c.417 0 .745-.335.745-.745 0-.417-.328-.745-.745-.745-.41 0-.745.328-.745.745 0 .41.335.745.745.745zm-.595 8.374h1.19v-7.109h-1.19V378zm5.49.123c1.025 0 1.838-.506 2.296-1.326h.021V378h1.135v-9.864h-1.19v3.91h-.027c-.424-.779-1.244-1.278-2.263-1.278-1.791 0-3.014 1.449-3.014 3.677 0 2.229 1.23 3.678 3.042 3.678zm.225-6.31c1.224 0 2.044 1.046 2.044 2.632 0 1.593-.82 2.632-2.044 2.632-1.258 0-2.051-1.018-2.051-2.632 0-1.606.793-2.632 2.051-2.632zm9.55 4.15c-.198.67-.861 1.128-1.764 1.128-1.278 0-2.078-.896-2.078-2.256v-.068h5.1v-.452c0-2.153-1.183-3.547-3.104-3.547-1.962 0-3.22 1.497-3.22 3.705 0 2.235 1.238 3.65 3.275 3.65 1.552 0 2.755-.916 2.96-2.16h-1.169zm-1.866-4.163c1.121 0 1.866.847 1.893 2.037h-3.862c.075-1.183.854-2.037 1.969-2.037zm10.65-1.032c-1.032 0-1.859.526-2.297 1.326h-.027v-1.203h-1.128v9.481h1.189v-3.527h.028c.424.779 1.244 1.278 2.262 1.278 1.791 0 3.015-1.449 3.015-3.678 0-2.228-1.23-3.677-3.042-3.677zm-.232 6.309c-1.217 0-2.037-1.046-2.037-2.632 0-1.579.82-2.632 2.037-2.632 1.264 0 2.057 1.026 2.057 2.632 0 1.614-.793 2.632-2.057 2.632zm4.539.923h1.189v-9.864h-1.189V378zm4.874.123c.957 0 1.859-.533 2.283-1.347h.027V378h1.128v-4.915c0-1.415-1.052-2.317-2.72-2.317-1.682 0-2.735.943-2.817 2.173h1.149c.15-.697.724-1.128 1.64-1.128.985 0 1.559.52 1.559 1.388v.595l-2.037.116c-1.641.096-2.577.861-2.577 2.078 0 1.279.95 2.133 2.365 2.133zm.266-1.012c-.854 0-1.421-.444-1.421-1.121 0-.67.546-1.094 1.503-1.155l1.901-.116v.581c0 1.025-.862 1.811-1.983 1.811zm5.066-7.936v1.716h-1.06v.977h1.06v4.286c0 1.367.506 1.901 1.811 1.901.281 0 .609-.021.752-.055v-.998c-.082.014-.355.034-.492.034-.608 0-.882-.294-.882-.943v-4.225h1.381v-.977h-1.381v-1.716h-1.189zm4.224 8.825h1.19v-6.132h1.449v-.977h-1.456v-.787c0-.704.308-1.045.95-1.045.198 0 .397.02.54.041v-.964c-.171-.028-.458-.055-.724-.055-1.313 0-1.949.649-1.949 2.017v.793h-.991v.977h.991V378zm6.474.123c1.962 0 3.288-1.415 3.288-3.678 0-2.269-1.326-3.677-3.288-3.677-1.969 0-3.295 1.408-3.295 3.677 0 2.263 1.326 3.678 3.295 3.678zm0-1.046c-1.258 0-2.085-.957-2.085-2.632 0-1.674.827-2.632 2.085-2.632s2.078.958 2.078 2.632c0 1.675-.82 2.632-2.078 2.632zm4.491.923h1.19v-4.43c0-1.005.601-1.668 1.524-1.668.287 0 .54.035.636.069v-1.156c-.096-.013-.274-.047-.479-.047-.834 0-1.49.499-1.722 1.285h-.028v-1.162h-1.121V378zm4.321 0h1.189v-4.457c0-.984.684-1.723 1.627-1.723.882 0 1.456.561 1.456 1.415V378h1.189v-4.519c0-.963.664-1.661 1.607-1.661.936 0 1.476.575 1.476 1.545V378h1.19v-4.908c0-1.408-.909-2.324-2.317-2.324-.998 0-1.832.505-2.229 1.353h-.027c-.308-.861-1.026-1.353-1.996-1.353-.957 0-1.682.505-2.017 1.257h-.027v-1.134h-1.121V378z"/>
  <path fill="#2A3860" d="M171.293 486.707c.39.391 1.024.391 1.414 0l6.364-6.364c.391-.39.391-1.024 0-1.414-.39-.391-1.024-.391-1.414 0L172 484.586l-5.657-5.657c-.39-.391-1.024-.391-1.414 0-.391.39-.391 1.024 0 1.414l6.364 6.364zM171 406v36.027h2V406h-2zm0 36.027V486h2v-43.973h-2z"/>
  <rect width="112" height="30" x="116" y="429" fill="#F5F5F7" stroke="#2A3860" stroke-width="2" rx="15"/>
  <path fill="#171717" d="M129.246 447.075c.712 0 1.191-.321 1.358-.91h.092V447h1.239v-6.693h-1.257v2.672h-.088c-.162-.58-.646-.905-1.344-.905-1.108 0-1.767.764-1.767 2.083v.835c0 1.318.659 2.083 1.767 2.083zm.465-1.042c-.624 0-1.006-.408-1.006-1.076v-.8c0-.668.382-1.073 1.006-1.073.62 0 .998.405.998 1.073v.8c0 .668-.378 1.076-.998 1.076zm6.685-.395c-.088.316-.471.536-.954.536-.629 0-1.037-.413-1.037-1.046v-.264h3.124v-.668c0-1.3-.821-2.144-2.105-2.144-1.318 0-2.197.839-2.197 2.109v.778c0 1.375.809 2.166 2.219 2.166 1.125 0 1.982-.61 2.083-1.467h-1.133zm-.994-2.655c.607 0 .967.418.967 1.112h-1.964c0-.694.373-1.112.997-1.112zm4.852 4.096c.633 0 1.142-.268 1.38-.725h.105V447h1.143v-3.287c0-1.059-.699-1.652-1.943-1.652-1.151 0-1.946.566-2.034 1.445h1.169c.101-.303.413-.487.83-.487.497 0 .787.246.787.668v.386l-1.134.071c-1.195.083-1.832.597-1.832 1.472 0 .874.615 1.463 1.529 1.463zm.413-.962c-.466 0-.756-.229-.756-.589 0-.374.286-.589.848-.624l.932-.057v.351c0 .541-.426.919-1.024.919zm7.945.883v-.958h-1.445v-5.735h-2.664v.958h1.459v4.777h-1.538V447h4.188zm5.362 0v-1.072h-1.314v-4.197h1.314v-1.072h-3.876v1.072h1.314v4.197h-1.314V447h3.876zm1.375-6.341V447h2.035c1.788 0 2.702-1.09 2.702-3.217 0-2.052-.927-3.124-2.702-3.124h-2.035zm1.248 1.076h.615c1.081 0 1.6.673 1.6 2.07 0 1.459-.501 2.118-1.6 2.118h-.615v-4.188zm6.566 2.022c.531 0 .966-.448.966-.993 0-.545-.435-.989-.966-.989-.532 0-.967.444-.967.989 0 .545.435.993.967.993zm0 3.326c.531 0 .966-.448.966-.988 0-.55-.435-.993-.966-.993-.532 0-.967.443-.967.993 0 .54.435.988.967.988zm12.054-6.424l-.752 3.041h1.266l.444-3.041h-.958zm-2.004 0l-.752 3.041h1.262l.448-3.041h-.958zm8.903 6.341v-6.341h-1.226v2.584h-2.074v-2.584h-1.226V447h1.226v-2.681h2.074V447h1.226zm1.868 1.749c1.186 0 1.753-.439 2.171-1.687l1.67-4.909h-1.275l-1.072 3.74h-.075l-1.072-3.74h-1.327l1.705 4.882-.048.185c-.115.382-.383.549-.87.549-.066 0-.238-.004-.269-.013v.984c.036.005.255.009.462.009zm5.291-1.749h1.309l2.686-5.295v-1.051h-4.509v1.042h3.252v.075L189.275 447zm9.725-2.123c0-1.169-.826-2.039-1.942-2.039-.396 0-.783.145-1.016.391l-.087-.013c.048-.105.092-.184.285-.444l1.595-2.113h-1.41c-.167.211-1.13 1.45-1.336 1.762-.633.896-.901 1.608-.901 2.373 0 1.389.984 2.333 2.421 2.333 1.367 0 2.391-.966 2.391-2.25zm-2.413 1.191c-.668 0-1.173-.487-1.173-1.147 0-.659.505-1.147 1.173-1.147.673 0 1.174.488 1.174 1.147 0 .66-.501 1.147-1.174 1.147zm3.244-3.498v.027h1.16v-.031c0-.607.422-1.02 1.05-1.02.615 0 1.015.361 1.015.91 0 .426-.224.76-1.09 1.626l-2.065 2.043V447h4.469v-1.05h-2.773v-.079l1.239-1.183c1.073-1.028 1.437-1.621 1.437-2.315 0-1.099-.883-1.842-2.192-1.842-1.332 0-2.25.826-2.25 2.039zm5.563 0v.027h1.16v-.031c0-.607.422-1.02 1.05-1.02.616 0 1.016.361 1.016.91 0 .426-.224.76-1.09 1.626l-2.066 2.043V447h4.47v-1.05h-2.773v-.079l1.239-1.183c1.072-1.028 1.437-1.621 1.437-2.315 0-1.099-.883-1.842-2.193-1.842-1.332 0-2.25.826-2.25 2.039zm6.899.954l.752-3.041h-1.266l-.448 3.041h.962zm2.004 0l.752-3.041h-1.266l-.448 3.041h.962z"/>
  <path fill="#000" d="M33.4883 39.0898V56h3.0234v-5.5898h3.4219c3.4219 0 5.8242-2.2852 5.8242-5.6602 0-3.375-2.332-5.6602-5.6953-5.6602h-6.5742zm3.0234 2.4727h2.7539c2.168 0 3.4219 1.1602 3.4219 3.1875 0 2.0508-1.2656 3.2227-3.4336 3.2227h-2.7422v-6.4102zm22.1836 2.0156h-2.918v7.1836c0 1.8047-1.0429 3-2.7304 3-1.6407 0-2.5078-.9609-2.5078-2.7422v-7.4414h-2.918v8.0274c0 2.8711 1.7109 4.6172 4.4062 4.6172 1.8868 0 3.1407-.8672 3.7969-2.3789h.0586V56h2.8125V43.5781zm9.3399 12.6211c3.1406 0 5.121-2.4375 5.121-6.4101 0-3.9727-1.9921-6.4219-5.121-6.4219-1.7579 0-3.1758.8906-3.879 2.3437h-.0703v-6.6211H61.168V56h2.8593v-2.1211h.0586c.7266 1.4414 2.1211 2.3203 3.9493 2.3203zm-.9024-10.4297c1.8633 0 3.0352 1.5586 3.0352 4.0196 0 2.4726-1.1602 4.0195-3.0352 4.0195-1.8047 0-3.0586-1.582-3.0586-4.0195 0-2.4141 1.2539-4.0196 3.0586-4.0196zM75.1367 56h2.918V39.0898h-2.918V56zm6.9258-14.2969c.8906 0 1.5937-.7148 1.5937-1.582 0-.8789-.7031-1.582-1.5937-1.582s-1.6055.7031-1.6055 1.582c0 .8672.7149 1.582 1.6055 1.582zM80.6094 56h2.9179V43.5781h-2.9179V56zm5.1445-8.8594c0 1.8399 1.1953 3.0117 3.5742 3.5391l2.0625.457c1.3008.293 1.7461.7149 1.7461 1.4649 0 .9257-.8789 1.5117-2.2969 1.5117-1.4765 0-2.3086-.6094-2.5312-1.8164h-2.8711c.2344 2.4023 2.1563 3.9492 5.4023 3.9492 3.0469 0 5.2032-1.582 5.2032-3.9258 0-1.8047-.9961-2.8008-3.5742-3.375l-2.0626-.457c-1.3007-.293-1.8164-.7852-1.8164-1.5 0-.9141.8555-1.5235 2.1446-1.5235 1.3476 0 2.1797.7149 2.2968 1.8399H95.75c-.0703-2.3555-1.9922-3.9844-5.0156-3.9844-3 0-4.9805 1.5469-4.9805 3.8203zM97.9883 56h2.9177v-7.1367c0-1.8281 1.067-3.0469 2.824-3.0469 1.688 0 2.555 1.043 2.555 2.7774V56h2.918v-8.0039c0-2.8477-1.605-4.6523-4.348-4.6523-1.886 0-3.257.8554-3.925 2.3671h-.059v-6.6211h-2.8827V56zm21.7847-3.7148c-.316 1.0312-1.347 1.7109-2.707 1.7109-1.91 0-3.128-1.3359-3.128-3.3281v-.1758h8.683v-.9492c0-3.7735-2.203-6.2227-5.73-6.2227-3.586 0-5.86 2.5899-5.86 6.5156 0 3.961 2.25 6.4102 5.977 6.4102 2.941 0 5.121-1.6172 5.496-3.9609h-2.731zm-2.871-6.7032c1.676 0 2.801 1.2305 2.86 2.9883h-5.801c.117-1.7344 1.301-2.9883 2.941-2.9883zM124.508 56h2.918v-7.2305c0-1.7461.996-2.8125 2.648-2.8125.492 0 .938.0703 1.184.1641v-2.6367c-.211-.0469-.539-.1172-.914-.1172-1.465 0-2.555.8672-2.977 2.3789h-.058v-2.168h-2.801V56z"/>
  <rect width="118" height="88" x="32" y="94" stroke="#C5C5CF" stroke-dasharray="8 8" stroke-linecap="round" stroke-miterlimit="4.13357" stroke-width="3" rx="10"/>
  <path stroke="#C5C5CF" stroke-dasharray="8 8" stroke-linecap="round" stroke-miterlimit="4.13357" stroke-width="3" d="M193 104c0-5.5228 4.477-10 10-10h98c5.523 0 10 4.4772 10 10v68c0 5.523-4.477 10-10 10h-98c-5.523 0-10-4.477-10-10v-68z"/>
  <path fill="#000" d="M69.5977 141.084h-5.9415v-3.621h5.6163v-1.802h-5.6163v-3.428h5.9415v-1.916h-8.209V143h8.209v-1.916zm5.2294 2.065c1.3624 0 2.4346-.694 2.9444-1.74h.0351V143h2.1446v-12.683h-2.1885v4.931H77.71c-.4922-1.028-1.5469-1.723-2.8829-1.723-2.3466 0-3.8671 1.864-3.8671 4.808 0 2.962 1.5205 4.816 3.8671 4.816zm.6592-7.822c1.3799 0 2.2852 1.187 2.2852 3.015 0 1.846-.9053 3.014-2.2852 3.014-1.415 0-2.2851-1.16-2.2851-3.014 0-1.846.8789-3.015 2.2851-3.015zm10.4063 11.189c2.7158 0 4.5-1.442 4.5-3.665v-9.167H88.248v1.599h-.0351c-.5361-1.072-1.6084-1.758-2.9356-1.758-2.3818 0-3.8759 1.837-3.8759 4.782 0 2.9 1.5293 4.702 3.832 4.702 1.3359 0 2.4346-.668 2.918-1.67h.0527v1.573c0 1.187-.8174 1.986-2.2412 1.986-1.0371 0-1.8369-.483-2.0742-1.195h-2.1709c.2197 1.635 1.872 2.813 4.1748 2.813zm.0088-5.247c-1.3799 0-2.2588-1.108-2.2588-2.954 0-1.828.8789-2.988 2.2588-2.988 1.3974 0 2.3027 1.178 2.3027 2.988 0 1.82-.9053 2.954-2.3027 2.954zm12.4453-1.055c-.2373.773-1.0108 1.283-2.0303 1.283-1.4326 0-2.3467-1.002-2.3467-2.496v-.132h6.5123v-.712c0-2.83-1.6519-4.667-4.2974-4.667-2.6895 0-4.3946 1.943-4.3946 4.887 0 2.971 1.6875 4.808 4.4825 4.808 2.206 0 3.8405-1.213 4.1225-2.971h-2.0483zm-2.1533-5.027c1.2568 0 2.1005.922 2.1445 2.241h-4.3506c.0879-1.301.9756-2.241 2.2061-2.241zM104.385 143v-4.078l1.248-1.459 4.122 5.537h2.76l-5.265-7.058 4.887-5.625h-2.611l-5.062 5.933h-.079v-5.933h-2.268V143h2.268zm10.257-10.723c.668 0 1.195-.536 1.195-1.186 0-.659-.527-1.187-1.195-1.187s-1.204.528-1.204 1.187c0 .65.536 1.186 1.204 1.186zM113.552 143h2.188v-9.316h-2.188V143zm4.632-11.496v2.18h-1.336v1.687h1.336v5.15c0 1.811.791 2.523 2.803 2.523.466 0 .897-.035 1.134-.088v-1.67c-.141.026-.422.044-.624.044-.773 0-1.125-.351-1.125-1.116v-4.843h1.758v-1.687h-1.758v-2.18h-2.188zM234.527 133v-12.683h-2.258v5.274h-6.17v-5.274h-2.268V133h2.268v-5.502h6.17V133h2.258zm8.192-2.786c-.238.773-1.011 1.283-2.031 1.283-1.432 0-2.346-1.002-2.346-2.496v-.132h6.512v-.712c0-2.83-1.652-4.667-4.297-4.667-2.69 0-4.395 1.943-4.395 4.887 0 2.971 1.688 4.808 4.483 4.808 2.206 0 3.84-1.213 4.122-2.971h-2.048zm-2.154-5.027c1.257 0 2.101.922 2.145 2.241h-4.351c.088-1.301.976-2.241 2.206-2.241zm8.447 7.962c1.195 0 2.364-.624 2.9-1.634h.044V133h2.109v-6.416c0-1.872-1.503-3.094-3.814-3.094-2.373 0-3.858 1.248-3.955 2.989h2.03c.141-.774.8-1.275 1.837-1.275 1.081 0 1.74.563 1.74 1.538v.668l-2.461.141c-2.267.14-3.542 1.134-3.542 2.786 0 1.679 1.31 2.812 3.112 2.812zm.659-1.652c-.949 0-1.582-.483-1.582-1.248 0-.738.606-1.213 1.661-1.283l2.153-.132v.712c0 1.125-.993 1.951-2.232 1.951zm9.641 1.652c1.363 0 2.435-.694 2.945-1.74h.035V133h2.145v-12.683h-2.189v4.931h-.053c-.492-1.028-1.547-1.723-2.883-1.723-2.346 0-3.867 1.864-3.867 4.808 0 2.962 1.521 4.816 3.867 4.816zm.66-7.822c1.38 0 2.285 1.187 2.285 3.015 0 1.846-.905 3.014-2.285 3.014-1.415 0-2.285-1.16-2.285-3.014 0-1.846.878-3.015 2.285-3.015zm12.471 4.887c-.237.773-1.01 1.283-2.03 1.283-1.433 0-2.347-1.002-2.347-2.496v-.132h6.513v-.712c0-2.83-1.652-4.667-4.298-4.667-2.689 0-4.394 1.943-4.394 4.887 0 2.971 1.687 4.808 4.482 4.808 2.206 0 3.841-1.213 4.122-2.971h-2.048zm-2.153-5.027c1.257 0 2.101.922 2.145 2.241h-4.351c.088-1.301.976-2.241 2.206-2.241zm5.704 7.813h2.189v-5.423c0-1.309.747-2.109 1.986-2.109.369 0 .703.053.888.123v-1.978c-.159-.035-.405-.088-.686-.088-1.099 0-1.916.651-2.232 1.785h-.044v-1.626h-2.101V133zm-47.865 22.149c2.355 0 3.841-1.828 3.841-4.807 0-2.98-1.494-4.817-3.841-4.817-1.318 0-2.382.668-2.909 1.758h-.053v-4.966h-2.188V155h2.144v-1.591h.044c.545 1.081 1.591 1.74 2.962 1.74zm-.677-7.822c1.398 0 2.277 1.169 2.277 3.015 0 1.854-.871 3.014-2.277 3.014-1.353 0-2.294-1.186-2.294-3.014 0-1.811.941-3.015 2.294-3.015zm7.084-3.05c.668 0 1.195-.536 1.195-1.186 0-.659-.527-1.187-1.195-1.187s-1.204.528-1.204 1.187c0 .65.536 1.186 1.204 1.186zM233.446 155h2.189v-9.316h-2.189V155zm7.506.149c1.362 0 2.435-.694 2.944-1.74h.036V155h2.144v-12.683h-2.188v4.931h-.053c-.492-1.028-1.547-1.723-2.883-1.723-2.347 0-3.867 1.864-3.867 4.808 0 2.962 1.52 4.816 3.867 4.816zm.659-7.822c1.38 0 2.285 1.187 2.285 3.015 0 1.846-.905 3.014-2.285 3.014-1.415 0-2.285-1.16-2.285-3.014 0-1.846.879-3.015 2.285-3.015zm9.783 7.822c1.362 0 2.434-.694 2.944-1.74h.035V155h2.145v-12.683h-2.189v4.931h-.053c-.492-1.028-1.547-1.723-2.882-1.723-2.347 0-3.868 1.864-3.868 4.808 0 2.962 1.521 4.816 3.868 4.816zm.659-7.822c1.38 0 2.285 1.187 2.285 3.015 0 1.846-.905 3.014-2.285 3.014-1.415 0-2.285-1.16-2.285-3.014 0-1.846.878-3.015 2.285-3.015zm7.444-3.05c.668 0 1.195-.536 1.195-1.186 0-.659-.527-1.187-1.195-1.187s-1.204.528-1.204 1.187c0 .65.536 1.186 1.204 1.186zM258.407 155h2.189v-9.316h-2.189V155zm4.026 0h2.188v-5.396c0-1.336.8-2.242 2.057-2.242 1.248 0 1.863.739 1.863 2.057V155h2.188v-6.021c0-2.153-1.168-3.471-3.225-3.471-1.433 0-2.426.668-2.927 1.775h-.044v-1.599h-2.1V155zm14.159 3.516c2.716 0 4.5-1.442 4.5-3.665v-9.167h-2.145v1.599h-.035c-.536-1.072-1.608-1.758-2.935-1.758-2.382 0-3.876 1.837-3.876 4.782 0 2.9 1.529 4.702 3.832 4.702 1.336 0 2.434-.668 2.918-1.67h.052v1.573c0 1.187-.817 1.986-2.241 1.986-1.037 0-1.837-.483-2.074-1.195h-2.171c.22 1.635 1.872 2.813 4.175 2.813zm.009-5.247c-1.38 0-2.259-1.108-2.259-2.954 0-1.828.879-2.988 2.259-2.988 1.397 0 2.302 1.178 2.302 2.988 0 1.82-.905 2.954-2.302 2.954z"/>
  <path fill="#2A3860" d="M184.707 143.707c.391-.39.391-1.024 0-1.414l-6.364-6.364c-.39-.391-1.024-.391-1.414 0-.391.39-.391 1.024 0 1.414l5.657 5.657-5.657 5.657c-.391.39-.391 1.024 0 1.414.39.391 1.024.391 1.414 0l6.364-6.364zM160 144h24v-2h-24v2z"/>
  <path fill="#fff" stroke="#B05AF4" stroke-width="3" d="M33.5 514c0-4.694 3.8056-8.5 8.5-8.5h259c4.694 0 8.5 3.806 8.5 8.5v68c0 4.694-3.806 8.5-8.5 8.5H42c-4.6944 0-8.5-3.806-8.5-8.5v-68z"/>
  <path fill="#2A3860" d="M154.116 531.317V544h4.632c3.797 0 6.029-2.355 6.029-6.372 0-4.017-2.241-6.311-6.029-6.311h-4.632zm2.268 1.916h2.127c2.531 0 3.955 1.565 3.955 4.404 0 2.891-1.406 4.447-3.955 4.447h-2.127v-8.851zm10.668 7.225c.105 2.32 2.048 3.753 4.983 3.753 3.05 0 4.957-1.529 4.957-3.955 0-1.881-1.116-2.953-3.788-3.507l-1.371-.281c-1.582-.334-2.215-.888-2.215-1.749 0-1.064 1.002-1.732 2.408-1.732 1.451 0 2.453.721 2.558 1.916h2.171c-.053-2.267-1.907-3.797-4.711-3.797-2.751 0-4.711 1.512-4.711 3.745 0 1.854 1.187 3.049 3.727 3.568l1.362.281c1.652.343 2.285.905 2.285 1.82 0 1.054-1.063 1.81-2.593 1.81-1.582 0-2.724-.703-2.891-1.872h-2.171zm12.636-9.141V544h2.268v-4.192h2.566c2.567 0 4.369-1.714 4.369-4.246 0-2.531-1.749-4.245-4.272-4.245h-4.931zm2.268 1.855h2.065c1.626 0 2.567.87 2.567 2.39 0 1.539-.949 2.417-2.575 2.417h-2.057v-4.807z"/>
  <path fill="#505050" d="M105.957 557.136V567h3.315c2.933 0 4.656-1.825 4.656-4.936 0-3.103-1.73-4.928-4.656-4.928h-3.315zm1.231 1.107h2.002c2.243 0 3.48 1.367 3.48 3.835 0 2.447-1.244 3.815-3.48 3.815h-2.002v-7.65zm12.803 6.72c-.198.67-.861 1.128-1.763 1.128-1.279 0-2.079-.896-2.079-2.256v-.068h5.1v-.452c0-2.153-1.183-3.547-3.103-3.547-1.962 0-3.22 1.497-3.22 3.705 0 2.235 1.237 3.65 3.274 3.65 1.552 0 2.755-.916 2.96-2.16h-1.169zm-1.866-4.163c1.121 0 1.866.847 1.894 2.037h-3.863c.075-1.183.855-2.037 1.969-2.037zm4.327 6.2h1.19v-4.457c0-.984.683-1.723 1.627-1.723.881 0 1.456.561 1.456 1.415V567h1.189v-4.519c0-.963.663-1.661 1.607-1.661.936 0 1.476.575 1.476 1.545V567h1.19v-4.908c0-1.408-.91-2.324-2.318-2.324-.998 0-1.832.505-2.228 1.353h-.028c-.307-.861-1.025-1.353-1.996-1.353-.957 0-1.681.505-2.016 1.257h-.028v-1.134h-1.121V567zm13.33.123c.957 0 1.86-.533 2.283-1.347h.028V567h1.128v-4.915c0-1.415-1.053-2.317-2.721-2.317-1.682 0-2.734.943-2.816 2.173h1.148c.15-.697.725-1.128 1.641-1.128.984 0 1.558.52 1.558 1.388v.595l-2.037.116c-1.64.096-2.577.861-2.577 2.078 0 1.279.95 2.133 2.365 2.133zm.267-1.012c-.855 0-1.422-.444-1.422-1.121 0-.67.547-1.094 1.504-1.155l1.9-.116v.581c0 1.025-.861 1.811-1.982 1.811zm4.682.889h1.19v-4.184c0-1.203.731-1.996 1.852-1.996 1.094 0 1.634.629 1.634 1.778V567h1.19v-4.614c0-1.614-.903-2.618-2.461-2.618-1.101 0-1.86.492-2.256 1.257h-.027v-1.134h-1.122V567zm10.077.123c1.025 0 1.838-.506 2.296-1.326h.021V567h1.135v-9.864h-1.19v3.91h-.027c-.424-.779-1.244-1.278-2.263-1.278-1.791 0-3.014 1.449-3.014 3.677 0 2.229 1.23 3.678 3.042 3.678zm.225-6.31c1.224 0 2.044 1.046 2.044 2.632 0 1.593-.82 2.632-2.044 2.632-1.258 0-2.051-1.018-2.051-2.632 0-1.606.793-2.632 2.051-2.632zm9.304 2.742v-1.108h-4.484v1.108h4.484zm1.408-1.702c0 1.025.65 1.647 1.989 1.968l1.128.274c.814.198 1.094.492 1.094 1.005 0 .642-.595 1.052-1.559 1.052-.963 0-1.51-.389-1.654-1.203h-1.189c.136 1.333 1.175 2.174 2.843 2.174 1.586 0 2.755-.875 2.755-2.112 0-1.019-.519-1.579-1.955-1.928l-1.128-.273c-.793-.192-1.155-.527-1.155-1.019 0-.622.574-1.053 1.442-1.053.875 0 1.422.458 1.511 1.203h1.135c-.048-1.257-1.087-2.173-2.646-2.173-1.538 0-2.611.868-2.611 2.085zm7.301-3.227c.417 0 .745-.335.745-.745 0-.417-.328-.745-.745-.745-.41 0-.745.328-.745.745 0 .41.335.745.745.745zm-.595 8.374h1.19v-7.109h-1.19V567zm5.489.123c1.026 0 1.839-.506 2.297-1.326h.021V567h1.135v-9.864h-1.19v3.91h-.027c-.424-.779-1.244-1.278-2.263-1.278-1.791 0-3.015 1.449-3.015 3.677 0 2.229 1.231 3.678 3.042 3.678zm.226-6.31c1.224 0 2.044 1.046 2.044 2.632 0 1.593-.82 2.632-2.044 2.632-1.258 0-2.051-1.018-2.051-2.632 0-1.606.793-2.632 2.051-2.632zm9.55 4.15c-.198.67-.862 1.128-1.764 1.128-1.278 0-2.078-.896-2.078-2.256v-.068h5.1v-.452c0-2.153-1.183-3.547-3.104-3.547-1.962 0-3.22 1.497-3.22 3.705 0 2.235 1.238 3.65 3.275 3.65 1.552 0 2.755-.916 2.96-2.16h-1.169zm-1.866-4.163c1.121 0 1.866.847 1.893 2.037h-3.862c.075-1.183.854-2.037 1.969-2.037zm10.65-1.032c-1.032 0-1.859.526-2.297 1.326h-.027v-1.203h-1.128v9.481h1.189v-3.527h.028c.423.779 1.244 1.278 2.262 1.278 1.791 0 3.015-1.449 3.015-3.678 0-2.228-1.23-3.677-3.042-3.677zm-.232 6.309c-1.217 0-2.038-1.046-2.038-2.632 0-1.579.821-2.632 2.038-2.632 1.264 0 2.057 1.026 2.057 2.632 0 1.614-.793 2.632-2.057 2.632zm4.539.923h1.189v-9.864h-1.189V567zm4.874.123c.957 0 1.859-.533 2.283-1.347h.027V567h1.128v-4.915c0-1.415-1.053-2.317-2.721-2.317-1.681 0-2.734.943-2.816 2.173h1.148c.151-.697.725-1.128 1.641-1.128.984 0 1.559.52 1.559 1.388v.595l-2.037.116c-1.641.096-2.578.861-2.578 2.078 0 1.279.951 2.133 2.366 2.133zm.266-1.012c-.854 0-1.422-.444-1.422-1.121 0-.67.547-1.094 1.504-1.155l1.901-.116v.581c0 1.025-.862 1.811-1.983 1.811zm5.066-7.936v1.716h-1.06v.977h1.06v4.286c0 1.367.506 1.901 1.811 1.901.28 0 .609-.021.752-.055v-.998c-.082.014-.355.034-.492.034-.608 0-.882-.294-.882-.943v-4.225h1.381v-.977h-1.381v-1.716h-1.189zm4.224 8.825h1.19v-6.132h1.449v-.977h-1.456v-.787c0-.704.308-1.045.95-1.045.198 0 .397.02.54.041v-.964c-.171-.028-.458-.055-.724-.055-1.313 0-1.949.649-1.949 2.017v.793h-.991v.977h.991V567zm6.474.123c1.962 0 3.288-1.415 3.288-3.678 0-2.269-1.326-3.677-3.288-3.677-1.969 0-3.295 1.408-3.295 3.677 0 2.263 1.326 3.678 3.295 3.678zm0-1.046c-1.258 0-2.085-.957-2.085-2.632 0-1.674.827-2.632 2.085-2.632s2.078.958 2.078 2.632c0 1.675-.82 2.632-2.078 2.632zm4.491.923h1.19v-4.43c0-1.005.601-1.668 1.524-1.668.287 0 .54.035.636.069v-1.156c-.096-.013-.274-.047-.479-.047-.834 0-1.49.499-1.722 1.285h-.028v-1.162h-1.121V567zm4.32 0h1.19v-4.457c0-.984.684-1.723 1.627-1.723.882 0 1.456.561 1.456 1.415V567h1.189v-4.519c0-.963.663-1.661 1.607-1.661.936 0 1.476.575 1.476 1.545V567h1.19v-4.908c0-1.408-.909-2.324-2.318-2.324-.998 0-1.832.505-2.228 1.353h-.027c-.308-.861-1.026-1.353-1.996-1.353-.958 0-1.682.505-2.017 1.257h-.027v-1.134h-1.122V567z"/>
</svg>
