<svg width="318" height="63" viewBox="0 0 318 63" fill="none" xmlns="http://www.w3.org/2000/svg">
<path d="M109.96 49.088C118.024 49.088 124.68 44.416 126.728 37.76H116.616C115.848 39.488 113.288 40.768 110.472 40.768C105.224 40.768 102.728 37.888 102.408 34.624H127.048C127.368 22.016 119.24 15.68 109.96 15.68C100.232 15.68 93 22.72 93 32.32C93 42.048 100.04 49.088 109.96 49.088ZM109.704 23.36C112.2 23.36 115.336 24.64 116.36 28.48H102.664C103.496 25.6 105.864 23.36 109.704 23.36Z" fill="#2A3860"/>
<path d="M144.973 49.088C149.325 49.088 152.269 46.912 153.677 45.184V48.384H163.341V0.383999H153.677V19.584C152.269 17.856 149.325 15.68 144.973 15.68C136.589 15.68 130.125 23.36 130.125 32.384C130.125 41.408 136.589 49.088 144.973 49.088ZM147.149 40.32C142.797 40.32 139.853 36.992 139.853 32.384C139.853 27.776 142.797 24.448 147.149 24.448C151.501 24.448 154.445 27.776 154.445 32.384C154.445 36.992 151.501 40.32 147.149 40.32Z" fill="#2A3860"/>
<path d="M184.399 62.4C192.655 62.4 200.719 58.24 200.719 46.4V16.384H191.055V19.584C189.583 17.344 186.255 15.68 182.351 15.68C174.159 15.68 167.375 22.848 167.375 31.808C167.375 40.768 174.159 47.936 182.351 47.936C186.255 47.936 189.583 46.272 191.055 44.032V47.808C191.055 52.352 187.983 54.4 184.655 54.4C181.391 54.4 179.215 53.12 178.191 50.112H168.783C169.295 57.024 175.247 62.4 184.399 62.4ZM184.463 39.168C180.559 39.168 177.103 36.288 177.103 31.808C177.103 27.328 180.559 24.448 184.463 24.448C188.367 24.448 191.823 27.328 191.823 31.808C191.823 36.288 188.367 39.168 184.463 39.168Z" fill="#2A3860"/>
<path d="M221.71 49.088C229.774 49.088 236.43 44.416 238.478 37.76H228.366C227.598 39.488 225.038 40.768 222.222 40.768C216.974 40.768 214.478 37.888 214.158 34.624H238.798C239.118 22.016 230.99 15.68 221.71 15.68C211.982 15.68 204.75 22.72 204.75 32.32C204.75 42.048 211.79 49.088 221.71 49.088ZM221.454 23.36C223.95 23.36 227.086 24.64 228.11 28.48H214.414C215.246 25.6 217.614 23.36 221.454 23.36Z" fill="#2A3860"/>
<path d="M264.363 48.384H276.075L261.483 30.848L273.259 16.384H261.803L252.459 27.84V0.383999H242.795V48.384H252.459V34.112L264.363 48.384Z" fill="#2A3860"/>
<path d="M283.408 12.032C286.799 12.032 289.488 9.344 289.488 6.016C289.488 2.688 286.799 0 283.408 0C280.143 0 277.391 2.688 277.391 6.016C277.391 9.344 280.143 12.032 283.408 12.032ZM278.607 48.384H288.271V16.384H278.607V48.384Z" fill="#2A3860"/>
<path d="M311.552 48.768C314.112 48.768 315.84 48.576 317.312 48.128V39.552C316.288 40 315.264 40.128 313.792 40.128C309.952 40.128 308.352 38.528 308.352 34.688V24.768H317.312V16.384H308.352V7.488H298.688V16.384H292.288V24.768H298.688V36.672C298.688 44.864 304.448 48.768 311.552 48.768Z" fill="#2A3860"/>
<path d="M19.6492 30.7078L32.5849 38.24V23.1756L19.6492 15.9709V30.7078Z" fill="#2C5EF6"/>
<path d="M34.2225 5.49139L21.4506 12.8598L34.2225 20.0645L47.1582 13.0236L34.2225 5.49139Z" fill="#2C5EF6"/>
<path d="M16.3743 14.1696L0 5V40.041L16.3743 30.5439V14.1696Z" fill="#2C5EF6"/>
<path d="M52.0701 14.3334V30.544L68.4444 40.0411V5.32758L52.0701 14.3334Z" fill="#2C5EF6"/>
<path d="M35.8596 42.0058V61L66.6433 43.3158L50.1052 33.8187L35.8596 42.0058Z" fill="#2C5EF6"/>
<path d="M35.8596 38.2399L48.7953 30.7077V16.1346L35.8596 23.1755V38.2399Z" fill="#2C5EF6"/>
<path d="M1.80109 43.3158L32.5848 61V42.0058L18.3391 33.8187L1.80109 43.3158Z" fill="#2C5EF6"/>
</svg>
